<svg xmlns="http://www.w3.org/2000/svg" version="1.1" xmlns:xlink="http://www.w3.org/1999/xlink" xmlns:svgjs="http://svgjs.dev/svgjs" width="1500" height="1500" viewBox="0 0 1500 1500"><rect width="1500" height="1500" fill="#ffffff"></rect><g transform="matrix(0.6666666666666666,0,0,0.6666666666666666,249.78425655976667,249.78425655976673)"><svg viewBox="0 0 343 343" data-background-color="#ffffff" preserveAspectRatio="xMidYMid meet" height="1500" width="1500" xmlns="http://www.w3.org/2000/svg" xmlns:xlink="http://www.w3.org/1999/xlink"><g id="tight-bounds" transform="matrix(1,0,0,1,0.0740000000000407,0.07400000000001228)"><svg viewBox="0 0 342.85155851775386 342.85155851775386" height="342.85155851775386" width="342.85155851775386"><g><svg></svg></g><g><svg viewBox="0 0 342.85155851775386 342.85155851775386" height="342.85155851775386" width="342.85155851775386"><g><path d="M0 171.426c0-94.676 76.75-171.426 171.426-171.426 94.676 0 171.426 76.75 171.426 171.426 0 94.676-76.75 171.426-171.426 171.426-94.676 0-171.426-76.75-171.426-171.426zM171.426 340.494c93.374 0 169.069-75.695 169.068-169.068 0-93.374-75.695-169.069-169.068-169.069-93.374 0-169.069 75.695-169.069 169.069 0 93.374 75.695 169.069 169.069 169.068z" data-fill-palette-color="tertiary" fill="#808080" stroke="transparent"></path><ellipse rx="164.56874808852186" ry="164.56874808852186" cx="171.42577925887693" cy="171.42577925887693" fill="#808080" stroke="transparent" stroke-width="0" fill-opacity="1" data-fill-palette-color="tertiary"></ellipse></g><g transform="matrix(1,0,0,1,64.84655864529837,110.62374494722943)"><svg viewBox="0 0 213.1584412271571 121.604068623295" height="121.604068623295" width="213.1584412271571"><g><svg viewBox="0 0 213.1584412271571 121.604068623295" height="121.604068623295" width="213.1584412271571"><g><svg viewBox="0 0 213.1584412271571 121.604068623295" height="121.604068623295" width="213.1584412271571"><g transform="matrix(1,0,0,1,0,73.14326034856474)"><svg viewBox="0 0 213.1584412271571 48.46080827473027" height="48.46080827473027" width="213.1584412271571"><g id="textblocktransform"><svg viewBox="0 0 213.1584412271571 48.46080827473027" height="48.46080827473027" width="213.1584412271571" id="textblock"><g><svg viewBox="0 0 213.1584412271571 26.137444352189593" height="26.137444352189593" width="213.1584412271571"><g transform="matrix(1,0,0,1,0,0)"><svg width="213.1584412271571" viewBox="-1 -29.3 238.93 29.3" height="26.137444352189593" data-palette-color="#ffffff"><path d="M-1-13.95L-1-13.95 1-13.95 1-6Q1-5.93 1.39-5.5 1.78-5.08 2.35-4.49 2.93-3.9 3.53-3.33 4.13-2.75 4.55-2.38 4.98-2 5.05-2L5.05-2Q5.05-2 5.05-2 5.05-2 5.05-2 5.05-2 5.05-2 5.05-2 5.05-2L5.05-2Q5.35-2 6.16-2 6.98-2 8.01-2 9.05-2 10.06-2 11.08-2 11.78-2 12.48-2 12.6-2L12.6-2Q12.6-1.53 12.6-1.01 12.6-0.5 12.6 0L12.6 0Q12.6 0 12.6 0 12.6 0 12.6 0 12.6 0 12.6 0L12.6 0Q12.6 0 12.6 0 12.6 0 12.6 0L12.6 0Q12.6 0 11.61 0 10.63 0 9.09 0 7.55 0 5.8 0 4.05 0 2.51 0 0.98 0-0.01 0-1 0-1 0L-1 0Q-1 0-1 0-1 0-1 0-1 0-1 0-1 0-1 0L-1 0Q-1 0-1-0.7-1-1.4-1-2.6-1-3.8-1-5.28-1-6.75-1-8.31-1-9.88-1-11.35-1-12.83-1-13.95ZM1-10.25L-1-10.25Q-1-11.4-1-12.85-1-14.3-1-15.88-1-17.45-1-18.93-1-20.4-1-21.6-1-22.8-1-23.5-1-24.2-1-24.2L-1-24.2Q-1-24.2-1-24.2-1-24.2-1-24.2-1-24.2-1-24.2-1-24.2-1-24.2L-1-24.2Q-1-24.2-0.01-24.2 0.98-24.2 2.51-24.2 4.05-24.2 5.8-24.2 7.55-24.2 9.09-24.2 10.63-24.2 11.61-24.2 12.6-24.2 12.6-24.2L12.6-24.2Q12.6-24.2 12.6-24.2 12.6-24.2 12.6-24.2L12.6-24.2Q12.6-24.2 12.6-24.2 12.6-24.2 12.6-24.2 12.6-24.2 12.6-24.2L12.6-24.2Q12.6-23.73 12.6-23.21 12.6-22.7 12.6-22.2L12.6-22.2Q12.48-22.2 11.78-22.2 11.08-22.2 10.06-22.2 9.05-22.2 8.01-22.2 6.98-22.2 6.16-22.2 5.35-22.2 5.05-22.2L5.05-22.2Q5.05-22.2 5.05-22.2 5.05-22.2 5.05-22.2 5.05-22.2 5.05-22.2 5.05-22.2 5.05-22.2L5.05-22.2Q4.98-22.2 4.55-21.83 4.13-21.45 3.53-20.88 2.93-20.3 2.35-19.71 1.78-19.13 1.39-18.7 1-18.28 1-18.2L1-18.2 1-10.25ZM1-6.4L-1-6.4-1-17.9 1-17.9Q1-16.75 1-16.16 1-15.58 1-15.14 1-14.7 1-14.05 1-13.4 1-12.15L1-12.15Q1-12.15 1-12.15 1-12.15 1-12.15L1-12.15Q1-12.15 1-12.15 1-12.15 1-12.15L1-12.15Q1-10.95 1-10.19 1-9.43 1-8.6 1-7.78 1-6.4L1-6.4ZM13.95-12.95L13.95-12.95Q13.95-13.05 13.96-13.09 13.98-13.13 14.01-13.14 14.05-13.15 14.15-13.15L14.15-13.15Q14.15-13.15 15.18-13.15 16.2-13.15 17.73-13.15 19.25-13.15 20.78-13.15 22.3-13.15 23.33-13.15 24.35-13.15 24.35-13.15L24.35-13.15Q24.35-13.15 24.35-13.15 24.35-13.15 24.35-13.15 24.35-13.15 24.35-13.15 24.35-13.15 24.35-13.15 24.35-13.15 24.35-13.15L24.35-13.15Q24.45-13.15 24.49-13.14 24.53-13.13 24.54-13.09 24.55-13.05 24.55-12.95L24.55-12.95Q24.55-12.95 24.55-12.79 24.55-12.63 24.55-12.39 24.55-12.15 24.55-11.91 24.55-11.68 24.55-11.51 24.55-11.35 24.55-11.35L24.55-11.35Q24.55-11.2 24.53-11.18 24.5-11.15 24.35-11.15L24.35-11.15Q24.35-11.15 24.35-11.15 24.35-11.15 24.35-11.15 24.35-11.15 24.35-11.15 24.35-11.15 24.35-11.15 24.35-11.15 24.35-11.15L24.35-11.15Q24.35-11.15 23.33-11.15 22.3-11.15 20.78-11.15 19.25-11.15 17.73-11.15 16.2-11.15 15.18-11.15 14.15-11.15 14.15-11.15L14.15-11.15Q14.05-11.15 14.01-11.16 13.98-11.18 13.96-11.21 13.95-11.25 13.95-11.35L13.95-11.35Q13.95-11.35 13.95-11.75 13.95-12.15 13.95-12.55 13.95-12.95 13.95-12.95ZM23.6-12.45L25.6-12.45Q25.6-12.45 25.6-11.55 25.6-10.65 25.6-9.24 25.6-7.83 25.6-6.23 25.6-4.63 25.6-3.21 25.6-1.8 25.6-0.9 25.6 0 25.6 0L25.6 0Q25.6 0 25.6 0 25.6 0 25.6 0 25.6 0 25.6 0 25.6 0 25.6 0L25.6 0Q25.6 0 24.61 0 23.63 0 22.09 0 20.55 0 18.8 0 17.05 0 15.51 0 13.98 0 12.99 0 12 0 12 0L12 0Q12 0 12 0 12 0 12 0L12 0Q12 0 12 0 12 0 12 0 12 0 12 0L12 0Q12-0.5 12-1.01 12-1.53 12-2L12-2Q12-2 13.18-2 14.35-2 16.07-2 17.8-2 19.53-2 21.25-2 22.43-2 23.6-2 23.6-2L23.6-2Q23.6-2 23.6-2 23.6-2 23.6-2 23.6-2 23.6-2 23.6-2 23.6-2L23.6-2Q23.6-2 23.6-2 23.6-2 23.6-2L23.6-2Q23.6-2 23.6-2 23.6-2 23.6-2 23.6-2 23.6-2 23.6-2 23.6-2 23.6-2 23.6-2L23.6-2Q23.6-2 23.6-3.05 23.6-4.1 23.6-5.66 23.6-7.23 23.6-8.79 23.6-10.35 23.6-11.4 23.6-12.45 23.6-12.45L23.6-12.45ZM25.6-11.75L25.6-11.75 23.6-11.75Q23.6-11.75 23.6-12.8 23.6-13.85 23.6-15.41 23.6-16.98 23.6-18.54 23.6-20.1 23.6-21.15 23.6-22.2 23.6-22.2L23.6-22.2Q23.6-22.2 23.6-22.2 23.6-22.2 23.6-22.2 23.6-22.2 23.6-22.2 23.6-22.2 23.6-22.2 23.6-22.2 23.6-22.2L23.6-22.2Q23.6-22.2 23.6-22.2 23.6-22.2 23.6-22.2L23.6-22.2Q23.6-22.2 23.6-22.2 23.6-22.2 23.6-22.2 23.6-22.2 23.6-22.2 23.6-22.2 23.6-22.2L23.6-22.2Q23.6-22.2 22.43-22.2 21.25-22.2 19.53-22.2 17.8-22.2 16.07-22.2 14.35-22.2 13.18-22.2 12-22.2 12-22.2L12-22.2Q12-22.7 12-23.21 12-23.73 12-24.2L12-24.2Q12-24.2 12-24.2 12-24.2 12-24.2 12-24.2 12-24.2L12-24.2Q12-24.2 12-24.2 12-24.2 12-24.2L12-24.2Q12-24.2 12.99-24.2 13.98-24.2 15.51-24.2 17.05-24.2 18.8-24.2 20.55-24.2 22.09-24.2 23.63-24.2 24.61-24.2 25.6-24.2 25.6-24.2L25.6-24.2Q25.6-24.2 25.6-24.2 25.6-24.2 25.6-24.2 25.6-24.2 25.6-24.2 25.6-24.2 25.6-24.2L25.6-24.2Q25.6-24.2 25.6-23.3 25.6-22.4 25.6-20.99 25.6-19.58 25.6-17.98 25.6-16.38 25.6-14.96 25.6-13.55 25.6-12.65 25.6-11.75 25.6-11.75ZM23.6-13.95L23.6-13.95 25.6-13.95 25.6-6Q25.6-5.93 25.98-5.5 26.37-5.08 26.95-4.49 27.52-3.9 28.12-3.33 28.72-2.75 29.15-2.38 29.57-2 29.65-2L29.65-2Q29.65-2 29.65-2 29.65-2 29.65-2 29.65-2 29.65-2 29.65-2 29.65-2L29.65-2Q29.95-2 30.76-2 31.57-2 32.61-2 33.65-2 34.66-2 35.67-2 36.37-2 37.07-2 37.2-2L37.2-2Q37.2-1.53 37.2-1.01 37.2-0.5 37.2 0L37.2 0Q37.2 0 37.2 0 37.2 0 37.2 0 37.2 0 37.2 0L37.2 0Q37.2 0 37.2 0 37.2 0 37.2 0L37.2 0Q37.2 0 36.21 0 35.22 0 33.69 0 32.15 0 30.4 0 28.65 0 27.11 0 25.57 0 24.59 0 23.6 0 23.6 0L23.6 0Q23.6 0 23.6 0 23.6 0 23.6 0 23.6 0 23.6 0 23.6 0 23.6 0L23.6 0Q23.6 0 23.6-0.7 23.6-1.4 23.6-2.6 23.6-3.8 23.6-5.28 23.6-6.75 23.6-8.31 23.6-9.88 23.6-11.35 23.6-12.83 23.6-13.95ZM25.6-11.75L23.6-11.75Q23.6-11.75 23.6-12.65 23.6-13.55 23.6-14.96 23.6-16.38 23.6-17.98 23.6-19.58 23.6-20.99 23.6-22.4 23.6-23.3 23.6-24.2 23.6-24.2L23.6-24.2Q23.6-24.2 23.6-24.2 23.6-24.2 23.6-24.2 23.6-24.2 23.6-24.2 23.6-24.2 23.6-24.2L23.6-24.2Q23.6-24.2 24.59-24.2 25.57-24.2 27.11-24.2 28.65-24.2 30.4-24.2 32.15-24.2 33.69-24.2 35.22-24.2 36.21-24.2 37.2-24.2 37.2-24.2L37.2-24.2Q37.2-24.2 37.2-24.2 37.2-24.2 37.2-24.2L37.2-24.2Q37.2-24.2 37.2-24.2 37.2-24.2 37.2-24.2 37.2-24.2 37.2-24.2L37.2-24.2Q37.2-23.73 37.2-23.21 37.2-22.7 37.2-22.2L37.2-22.2Q37.2-22.2 36.02-22.2 34.85-22.2 33.12-22.2 31.4-22.2 29.67-22.2 27.95-22.2 26.77-22.2 25.6-22.2 25.6-22.2L25.6-22.2Q25.6-22.2 25.6-22.2 25.6-22.2 25.6-22.2 25.6-22.2 25.6-22.2 25.6-22.2 25.6-22.2L25.6-22.2Q25.6-22.2 25.6-22.2 25.6-22.2 25.6-22.2L25.6-22.2Q25.6-22.2 25.6-22.2 25.6-22.2 25.6-22.2 25.6-22.2 25.6-22.2 25.6-22.2 25.6-22.2 25.6-22.2 25.6-22.2L25.6-22.2Q25.6-22.2 25.6-21.15 25.6-20.1 25.6-18.54 25.6-16.98 25.6-15.41 25.6-13.85 25.6-12.8 25.6-11.75 25.6-11.75L25.6-11.75ZM50.2-10.25L50.2-10.25 48.2-10.25 48.2-18.2Q48.2-18.28 47.81-18.7 47.42-19.13 46.85-19.71 46.27-20.3 45.67-20.88 45.07-21.45 44.65-21.83 44.22-22.2 44.15-22.2L44.15-22.2Q44.15-22.2 44.15-22.2 44.15-22.2 44.15-22.2 44.15-22.2 44.15-22.2 44.15-22.2 44.15-22.2L44.15-22.2Q43.85-22.2 43.03-22.2 42.22-22.2 41.19-22.2 40.15-22.2 39.14-22.2 38.12-22.2 37.42-22.2 36.72-22.2 36.6-22.2L36.6-22.2Q36.6-22.7 36.6-23.21 36.6-23.73 36.6-24.2L36.6-24.2Q36.6-24.2 36.6-24.2 36.6-24.2 36.6-24.2 36.6-24.2 36.6-24.2L36.6-24.2Q36.6-24.2 36.6-24.2 36.6-24.2 36.6-24.2L36.6-24.2Q36.6-24.2 37.59-24.2 38.57-24.2 40.11-24.2 41.65-24.2 43.4-24.2 45.15-24.2 46.69-24.2 48.22-24.2 49.21-24.2 50.2-24.2 50.2-24.2L50.2-24.2Q50.2-24.2 50.2-24.2 50.2-24.2 50.2-24.2 50.2-24.2 50.2-24.2 50.2-24.2 50.2-24.2L50.2-24.2Q50.2-24.2 50.2-23.5 50.2-22.8 50.2-21.6 50.2-20.4 50.2-18.93 50.2-17.45 50.2-15.88 50.2-14.3 50.2-12.85 50.2-11.4 50.2-10.25ZM48.2-12.45L50.2-12.45Q50.2-12.45 50.2-11.55 50.2-10.65 50.2-9.24 50.2-7.83 50.2-6.23 50.2-4.63 50.2-3.21 50.2-1.8 50.2-0.9 50.2 0 50.2 0L50.2 0Q50.2 0 50.2 0 50.2 0 50.2 0 50.2 0 50.2 0 50.2 0 50.2 0L50.2 0Q50.2 0 49.21 0 48.22 0 46.69 0 45.15 0 43.4 0 41.65 0 40.11 0 38.57 0 37.59 0 36.6 0 36.6 0L36.6 0Q36.6 0 36.6 0 36.6 0 36.6 0L36.6 0Q36.6 0 36.6 0 36.6 0 36.6 0 36.6 0 36.6 0L36.6 0Q36.6-0.5 36.6-1.01 36.6-1.53 36.6-2L36.6-2Q36.6-2 37.77-2 38.95-2 40.67-2 42.4-2 44.12-2 45.85-2 47.02-2 48.2-2 48.2-2L48.2-2Q48.2-2 48.2-2 48.2-2 48.2-2 48.2-2 48.2-2 48.2-2 48.2-2L48.2-2Q48.2-2 48.2-2 48.2-2 48.2-2L48.2-2Q48.2-2 48.2-2 48.2-2 48.2-2 48.2-2 48.2-2 48.2-2 48.2-2 48.2-2 48.2-2L48.2-2Q48.2-2 48.2-3.05 48.2-4.1 48.2-5.66 48.2-7.23 48.2-8.79 48.2-10.35 48.2-11.4 48.2-12.45 48.2-12.45L48.2-12.45ZM50.2-17.9L50.2-6.4 48.2-6.4Q48.2-7.78 48.2-8.6 48.2-9.43 48.2-10.19 48.2-10.95 48.2-12.15L48.2-12.15Q48.2-12.15 48.2-12.15 48.2-12.15 48.2-12.15L48.2-12.15Q48.2-12.15 48.2-12.15 48.2-12.15 48.2-12.15L48.2-12.15Q48.2-13.4 48.2-14.05 48.2-14.7 48.2-15.14 48.2-15.58 48.2-16.16 48.2-16.75 48.2-17.9L48.2-17.9 50.2-17.9ZM33.85-7.85L33.85-7.85Q33.85-7.85 33.85-7.85 33.85-7.85 33.85-7.85 33.85-7.85 33.85-7.85 33.85-7.85 33.85-7.85 33.85-7.85 33.85-7.85L33.85-7.85Q33.85-7.85 33.85-7.85 33.85-7.85 33.85-7.85L33.85-7.85Q33.7-7.85 33.67-7.88 33.65-7.9 33.65-8.05L33.65-8.05Q33.65-8.33 33.65-8.59 33.65-8.85 33.65-9.11 33.65-9.38 33.65-9.65L33.65-9.65Q33.65-9.8 33.67-9.83 33.7-9.85 33.85-9.85L33.85-9.85Q33.85-9.85 33.85-9.85 33.85-9.85 33.85-9.85L33.85-9.85Q33.85-9.85 33.85-9.85 33.85-9.85 33.85-9.85 33.85-9.85 33.85-9.85 33.85-9.85 33.85-9.85 33.85-9.85 33.85-9.85L33.85-9.85Q33.85-9.85 34.78-9.85 35.72-9.85 36.95-9.85 38.17-9.85 39.11-9.85 40.05-9.85 40.05-9.85L40.05-9.85Q40.05-9.85 40.05-9.85 40.05-9.85 40.05-9.85L40.05-9.85Q40.2-9.85 40.22-9.83 40.25-9.8 40.25-9.65L40.25-9.65Q40.25-9.38 40.25-9.11 40.25-8.85 40.25-8.59 40.25-8.33 40.25-8.05L40.25-8.05Q40.25-7.9 40.22-7.88 40.2-7.85 40.05-7.85L40.05-7.85Q40.05-7.85 40.05-7.85 40.05-7.85 40.05-7.85L40.05-7.85Q40.05-7.85 39.11-7.85 38.17-7.85 36.95-7.85 35.72-7.85 34.78-7.85 33.85-7.85 33.85-7.85ZM24.65-12.05L24.65-15.7 25.6-15.7Q25.6-15.7 25.6-15.53 25.6-15.35 25.6-15.18 25.6-15 25.6-15L25.6-15Q25.6-15 26.61-15.15 27.62-15.3 29.11-15.51 30.6-15.73 32.09-15.94 33.57-16.15 34.59-16.3 35.6-16.45 35.6-16.45L35.6-16.45Q35.6-16.45 35.61-16.35 35.62-16.25 35.66-16.04 35.7-15.83 35.75-15.5L35.75-15.5Q35.8-15.18 35.84-14.95 35.87-14.73 35.89-14.61 35.9-14.5 35.9-14.5L35.9-14.5Q35.9-14.5 34.86-14.35 33.82-14.2 32.28-13.98 30.75-13.75 29.21-13.53 27.67-13.3 26.64-13.15 25.6-13 25.6-13L25.6-13Q25.6-13 25.6-12.76 25.6-12.53 25.6-12.29 25.6-12.05 25.6-12.05L25.6-12.05 24.65-12.05ZM62.5 0L62.5 0Q62.5 0 62.5 0 62.5 0 62.5 0 62.5 0 62.5 0L62.5 0Q62.5 0 62.5 0 62.5 0 62.5 0 62.5 0 62.5 0L62.5 0Q62.4 0 61.32 0 60.25 0 58.62 0 57 0 55.2 0 53.4 0 51.8 0 50.2 0 49.2 0 48.2 0 48.2 0L48.2 0Q48.2 0 48.2 0 48.2 0 48.2 0 48.2 0 48.2 0L48.2 0 48.2-12.9 50.2-12.9 50.2-2Q50.2-2 50.2-2 50.2-2 50.2-2 50.2-2 50.2-2L50.2-2Q50.2-2 51.07-2 51.95-2 53.1-2 54.25-2 55.12-2 56-2 56-2L56-2Q56-2 56-2 56-2 56-2 56-2 56-2 56-2 56-2 56-2 56-2L56-2Q56-2 56.87-2 57.75-2 58.9-2 60.05-2 60.92-2 61.8-2 61.8-2L61.8-2Q61.8-2 61.8-2 61.8-2 61.8-2L61.8-2Q61.8-2 61.8-2.13 61.8-2.25 61.8-2.88 61.8-3.5 61.8-4.95 61.8-6.4 61.8-9.05L61.8-9.05Q61.8-9.05 61.8-9.05 61.8-9.05 61.8-9.05 61.8-9.05 61.8-9.05 61.8-9.05 61.8-9.05 61.8-9.05 61.8-9.05L61.8-9.05Q61.8-9.05 62.91-9.05 64.02-9.05 65.66-9.05 67.3-9.05 68.93-9.05 70.57-9.05 71.68-9.05 72.8-9.05 72.8-9.05L72.8-9.05Q72.8-9.05 72.8-9.05 72.8-9.05 72.8-9.05L72.8-9.05Q72.8-9.05 72.8-9.05 72.8-9.05 72.8-9.05 72.8-9.05 72.8-9.05L72.8-9.05Q72.8-9.05 72.8-9.85 72.8-10.65 72.8-11.83 72.8-13 72.8-14.18 72.8-15.35 72.8-16.15 72.8-16.95 72.8-16.95L72.8-16.95Q72.8-16.95 72.8-16.95 72.8-16.95 72.8-16.95 72.8-16.95 72.8-16.95 72.8-16.95 72.8-16.95 72.8-16.95 72.8-16.95L72.8-16.95 74.8-16.95 74.8 0Q74.8 0 73.93 0 73.07 0 71.7 0 70.32 0 68.76 0 67.2 0 65.8 0 64.4 0 63.48 0 62.57 0 62.5 0L62.5 0Q62.5 0 62.5 0 62.5 0 62.5 0L62.5 0Q62.5 0 62.5 0 62.5 0 62.5 0ZM50.2-11.75L48.2-11.75Q48.2-11.75 48.2-12.65 48.2-13.55 48.2-14.96 48.2-16.38 48.2-17.98 48.2-19.58 48.2-20.99 48.2-22.4 48.2-23.3 48.2-24.2 48.2-24.2L48.2-24.2Q48.2-24.2 48.2-24.2 48.2-24.2 48.2-24.2 48.2-24.2 48.2-24.2L48.2-24.2Q48.2-24.2 49.18-24.2 50.17-24.2 51.75-24.2 53.32-24.2 55.07-24.2 56.82-24.2 58.4-24.2 59.97-24.2 60.96-24.2 61.95-24.2 61.95-24.2L61.95-24.2Q61.95-24.2 61.95-24.2 61.95-24.2 61.95-24.2 61.95-24.2 61.95-24.2L61.95-24.2Q61.95-24.2 61.95-24.2 61.95-24.2 61.95-24.2L61.95-24.2Q61.95-24.2 61.95-24.2 61.95-24.2 61.95-24.2 61.95-24.2 61.95-24.2 61.95-24.2 61.95-24.2L61.95-24.2Q61.95-23.93 61.95-23.25 61.95-22.58 61.95-21.7 61.95-20.83 61.95-19.9 61.95-18.98 61.95-18.16 61.95-17.35 61.95-16.85L61.95-16.85Q61.95-16.85 61.53-17.66 61.12-18.48 60.6-19.53 60.07-20.58 59.66-21.39 59.25-22.2 59.25-22.2L59.25-22.2Q59.25-22.2 58.33-22.2 57.42-22.2 56.07-22.2 54.72-22.2 53.37-22.2 52.02-22.2 51.11-22.2 50.2-22.2 50.2-22.2L50.2-22.2Q50.2-22.2 50.2-22.2 50.2-22.2 50.2-22.2 50.2-22.2 50.2-22.2 50.2-22.2 50.2-22.2L50.2-22.2Q50.2-22.2 50.2-22.2 50.2-22.2 50.2-22.2L50.2-22.2Q50.2-22.2 50.2-22.2 50.2-22.2 50.2-22.2 50.2-22.2 50.2-22.2 50.2-22.2 50.2-22.2 50.2-22.2 50.2-22.2L50.2-22.2Q50.2-22.2 50.2-21.15 50.2-20.1 50.2-18.54 50.2-16.98 50.2-15.41 50.2-13.85 50.2-12.8 50.2-11.75 50.2-11.75L50.2-11.75ZM74.8-14.15L74.8-14.15 72.8-14.15Q72.8-14.15 72.8-14.15 72.8-14.15 72.8-14.15L72.8-14.15Q72.8-14.15 72.8-14.15 72.8-14.15 72.8-14.15L72.8-14.15Q72.8-14.15 72.8-14.23 72.8-14.3 72.8-14.66 72.8-15.03 72.8-15.88 72.8-16.73 72.8-18.25 72.8-19.78 72.8-22.2L72.8-22.2Q72.8-22.2 72.8-22.2 72.8-22.2 72.8-22.2 72.8-22.2 72.8-22.2 72.8-22.2 72.8-22.2L72.8-22.2Q72.8-22.2 72.21-22.2 71.62-22.2 70.71-22.2 69.8-22.2 68.77-22.2 67.75-22.2 66.83-22.2 65.92-22.2 65.33-22.2 64.75-22.2 64.75-22.2L64.75-22.2Q64.75-22.2 64.32-21.39 63.9-20.58 63.35-19.53 62.8-18.48 62.37-17.66 61.95-16.85 61.95-16.85L61.95-16.85Q61.95-16.85 61.95-16.85 61.95-16.85 61.95-16.85 61.95-16.85 61.95-16.85L61.95-16.85Q61.95-16.85 61.83-17.66 61.72-18.48 61.58-19.53 61.45-20.58 61.33-21.39 61.22-22.2 61.22-22.2L61.22-22.2Q61.22-22.2 61.22-22.4 61.22-22.6 61.22-22.9 61.22-23.2 61.22-23.5 61.22-23.8 61.22-24 61.22-24.2 61.22-24.2L61.22-24.2Q61.22-24.2 61.22-24.2 61.22-24.2 61.22-24.2 61.22-24.2 61.22-24.2 61.22-24.2 61.22-24.2L61.22-24.2Q61.22-24.2 62.2-24.2 63.17-24.2 64.72-24.2 66.27-24.2 68.01-24.2 69.75-24.2 71.3-24.2 72.85-24.2 73.82-24.2 74.8-24.2 74.8-24.2L74.8-24.2Q74.8-24.2 74.8-24.2 74.8-24.2 74.8-24.2 74.8-24.2 74.8-24.2L74.8-24.2Q74.8-24.2 74.8-24.2 74.8-24.2 74.8-24.2 74.8-24.2 74.8-24.2 74.8-24.2 74.8-24.2 74.8-24.2 74.8-24.2L74.8-24.2Q74.8-24.2 74.8-24.2 74.8-24.2 74.8-24.2 74.8-24.2 74.8-24.2 74.8-24.2 74.8-24.2L74.8-24.2Q74.8-24.2 74.8-23.48 74.8-22.75 74.8-21.6 74.8-20.45 74.8-19.18 74.8-17.9 74.8-16.75 74.8-15.6 74.8-14.88 74.8-14.15 74.8-14.15ZM97.39-13.95L99.39-13.95Q99.39-12.83 99.39-11.35 99.39-9.88 99.39-8.31 99.39-6.75 99.39-5.28 99.39-3.8 99.39-2.6 99.39-1.4 99.39-0.7 99.39 0 99.39 0L99.39 0Q99.39 0 99.39 0 99.39 0 99.39 0 99.39 0 99.39 0 99.39 0 99.39 0L99.39 0Q99.39 0 98.41 0 97.42 0 95.88 0 94.34 0 92.59 0 90.84 0 89.31 0 87.77 0 86.78 0 85.79 0 85.79 0L85.79 0Q85.79 0 85.79 0 85.79 0 85.79 0L85.79 0Q85.79 0 85.79 0 85.79 0 85.79 0 85.79 0 85.79 0L85.79 0Q85.79-0.5 85.79-1.01 85.79-1.53 85.79-2L85.79-2Q85.92-2 86.62-2 87.32-2 88.33-2 89.34-2 90.38-2 91.42-2 92.23-2 93.04-2 93.34-2L93.34-2Q93.34-2 93.34-2 93.34-2 93.34-2 93.34-2 93.34-2 93.34-2 93.34-2L93.34-2Q93.42-2 93.84-2.38 94.27-2.75 94.87-3.33 95.47-3.9 96.04-4.49 96.62-5.08 97.01-5.5 97.39-5.93 97.39-6L97.39-6 97.39-13.95ZM74.79-15.35L72.79-15.35Q72.79-16.5 72.79-17.95 72.79-19.4 72.79-20.98 72.79-22.55 72.79-24.03 72.79-25.5 72.79-26.7 72.79-27.9 72.79-28.6 72.79-29.3 72.79-29.3L72.79-29.3Q72.79-29.3 72.79-29.3 72.79-29.3 72.79-29.3 72.79-29.3 72.79-29.3 72.79-29.3 72.79-29.3L72.79-29.3Q72.79-29.3 73.78-29.3 74.77-29.3 76.31-29.3 77.84-29.3 79.59-29.3 81.34-29.3 82.88-29.3 84.42-29.3 85.41-29.3 86.39-29.3 86.39-29.3L86.39-29.3Q86.39-29.3 86.39-29.3 86.39-29.3 86.39-29.3L86.39-29.3Q86.39-29.3 86.39-29.3 86.39-29.3 86.39-29.3 86.39-29.3 86.39-29.3L86.39-29.3Q86.39-28.83 86.39-28.31 86.39-27.8 86.39-27.3L86.39-27.3Q86.27-27.3 85.57-27.3 84.87-27.3 83.86-27.3 82.84-27.3 81.81-27.3 80.77-27.3 79.96-27.3 79.14-27.3 78.84-27.3L78.84-27.3Q78.84-27.3 78.84-27.3 78.84-27.3 78.84-27.3 78.84-27.3 78.84-27.3 78.84-27.3 78.84-27.3L78.84-27.3Q78.77-27.3 78.34-26.93 77.92-26.55 77.32-25.98 76.72-25.4 76.14-24.81 75.57-24.23 75.18-23.8 74.79-23.38 74.79-23.3L74.79-23.3 74.79-15.35ZM72.79-12.45L72.79-12.45 74.79-12.45Q74.79-12.45 74.79-11.4 74.79-10.35 74.79-8.79 74.79-7.23 74.79-5.66 74.79-4.1 74.79-3.05 74.79-2 74.79-2L74.79-2Q74.79-2 74.79-2 74.79-2 74.79-2 74.79-2 74.79-2 74.79-2 74.79-2 74.79-2 74.79-2L74.79-2Q74.79-2 74.79-2 74.79-2 74.79-2L74.79-2Q74.79-2 74.79-2 74.79-2 74.79-2 74.79-2 74.79-2 74.79-2 74.79-2L74.79-2Q74.79-2 75.97-2 77.14-2 78.87-2 80.59-2 82.32-2 84.04-2 85.22-2 86.39-2 86.39-2L86.39-2Q86.39-1.53 86.39-1.01 86.39-0.5 86.39 0L86.39 0Q86.39 0 86.39 0 86.39 0 86.39 0 86.39 0 86.39 0L86.39 0Q86.39 0 86.39 0 86.39 0 86.39 0L86.39 0Q86.39 0 85.41 0 84.42 0 82.88 0 81.34 0 79.59 0 77.84 0 76.31 0 74.77 0 73.78 0 72.79 0 72.79 0L72.79 0Q72.79 0 72.79 0 72.79 0 72.79 0 72.79 0 72.79 0 72.79 0 72.79 0L72.79 0Q72.79 0 72.79-0.9 72.79-1.8 72.79-3.21 72.79-4.63 72.79-6.23 72.79-7.83 72.79-9.24 72.79-10.65 72.79-11.55 72.79-12.45 72.79-12.45ZM99.39-16.85L99.39-16.85 97.39-16.85Q97.39-16.85 97.39-17.9 97.39-18.95 97.39-20.51 97.39-22.08 97.39-23.64 97.39-25.2 97.39-26.25 97.39-27.3 97.39-27.3L97.39-27.3Q97.39-27.3 97.39-27.3 97.39-27.3 97.39-27.3 97.39-27.3 97.39-27.3 97.39-27.3 97.39-27.3 97.39-27.3 97.39-27.3L97.39-27.3Q97.39-27.3 97.39-27.3 97.39-27.3 97.39-27.3L97.39-27.3Q97.39-27.3 97.39-27.3 97.39-27.3 97.39-27.3 97.39-27.3 97.39-27.3 97.39-27.3 97.39-27.3L97.39-27.3Q97.39-27.3 96.22-27.3 95.04-27.3 93.32-27.3 91.59-27.3 89.87-27.3 88.14-27.3 86.97-27.3 85.79-27.3 85.79-27.3L85.79-27.3Q85.79-27.8 85.79-28.31 85.79-28.83 85.79-29.3L85.79-29.3Q85.79-29.3 85.79-29.3 85.79-29.3 85.79-29.3 85.79-29.3 85.79-29.3L85.79-29.3Q85.79-29.3 85.79-29.3 85.79-29.3 85.79-29.3L85.79-29.3Q85.79-29.3 86.78-29.3 87.77-29.3 89.31-29.3 90.84-29.3 92.59-29.3 94.34-29.3 95.88-29.3 97.42-29.3 98.41-29.3 99.39-29.3 99.39-29.3L99.39-29.3Q99.39-29.3 99.39-29.3 99.39-29.3 99.39-29.3 99.39-29.3 99.39-29.3 99.39-29.3 99.39-29.3L99.39-29.3Q99.39-29.3 99.39-28.4 99.39-27.5 99.39-26.09 99.39-24.68 99.39-23.08 99.39-21.48 99.39-20.06 99.39-18.65 99.39-17.75 99.39-16.85 99.39-16.85ZM97.39-24.35L99.39-24.35 99.39-5.85 97.39-5.85Q97.39-5.85 97.39-8.15 97.39-10.45 97.39-15.35L97.39-15.35Q97.39-15.35 97.39-15.48 97.39-15.6 97.39-15.6L97.39-15.6Q97.39-15.6 97.39-15.73 97.39-15.85 97.39-15.85L97.39-15.85Q97.39-20.4 97.39-22.38 97.39-24.35 97.39-24.35L97.39-24.35ZM74.79-4.9L72.79-4.9 72.79-23.4 74.79-23.4Q74.79-23.4 74.79-21.11 74.79-18.82 74.79-13.9L74.79-13.9Q74.79-13.9 74.79-13.78 74.79-13.65 74.79-13.65L74.79-13.65Q74.79-13.65 74.79-13.53 74.79-13.4 74.79-13.4L74.79-13.4Q74.79-8.88 74.79-6.89 74.79-4.9 74.79-4.9L74.79-4.9ZM74.79-11.45L73.84-11.45 73.84-15.1 74.79-15.1Q74.79-15.1 74.79-14.86 74.79-14.63 74.79-14.39 74.79-14.15 74.79-14.15L74.79-14.15Q74.79-14.15 75.83-14 76.87-13.85 78.41-13.63 79.94-13.4 81.48-13.18 83.02-12.95 84.06-12.8 85.09-12.65 85.09-12.65L85.09-12.65Q85.09-12.65 85.08-12.54 85.07-12.43 85.03-12.2 84.99-11.98 84.94-11.65L84.94-11.65Q84.89-11.33 84.86-11.11 84.82-10.9 84.81-10.8 84.79-10.7 84.79-10.7L84.79-10.7Q84.79-10.7 83.78-10.85 82.77-11 81.28-11.21 79.79-11.43 78.31-11.64 76.82-11.85 75.81-12 74.79-12.15 74.79-12.15L74.79-12.15Q74.79-12.15 74.79-11.98 74.79-11.8 74.79-11.63 74.79-11.45 74.79-11.45L74.79-11.45ZM97.39-18.2L98.34-18.2 98.34-14.55 97.39-14.55Q97.39-14.55 97.39-14.79 97.39-15.03 97.39-15.26 97.39-15.5 97.39-15.5L97.39-15.5Q97.39-15.5 96.36-15.65 95.32-15.8 93.78-16.03 92.24-16.25 90.71-16.48 89.17-16.7 88.13-16.85 87.09-17 87.09-17L87.09-17Q87.09-17 87.11-17.11 87.12-17.23 87.16-17.45 87.19-17.68 87.24-18L87.24-18Q87.29-18.32 87.33-18.54 87.37-18.75 87.38-18.85 87.39-18.95 87.39-18.95L87.39-18.95Q87.39-18.95 88.41-18.8 89.42-18.65 90.91-18.44 92.39-18.23 93.88-18.01 95.37-17.8 96.38-17.65 97.39-17.5 97.39-17.5L97.39-17.5Q97.39-17.5 97.39-17.68 97.39-17.85 97.39-18.03 97.39-18.2 97.39-18.2L97.39-18.2ZM99.39-10.25L97.39-10.25Q97.39-11.4 97.39-12.85 97.39-14.3 97.39-15.88 97.39-17.45 97.39-18.93 97.39-20.4 97.39-21.6 97.39-22.8 97.39-23.5 97.39-24.2 97.39-24.2L97.39-24.2Q97.39-24.2 97.39-24.2 97.39-24.2 97.39-24.2 97.39-24.2 97.39-24.2 97.39-24.2 97.39-24.2L97.39-24.2Q97.39-24.2 98.38-24.2 99.37-24.2 100.9-24.2 102.44-24.2 104.19-24.2 105.94-24.2 107.48-24.2 109.02-24.2 110-24.2 110.99-24.2 110.99-24.2L110.99-24.2Q110.99-24.2 110.99-24.2 110.99-24.2 110.99-24.2L110.99-24.2Q110.99-24.2 110.99-24.2 110.99-24.2 110.99-24.2 110.99-24.2 110.99-24.2L110.99-24.2Q110.99-23.73 110.99-23.21 110.99-22.7 110.99-22.2L110.99-22.2Q110.87-22.2 110.17-22.2 109.47-22.2 108.45-22.2 107.44-22.2 106.4-22.2 105.37-22.2 104.55-22.2 103.74-22.2 103.44-22.2L103.44-22.2Q103.44-22.2 103.44-22.2 103.44-22.2 103.44-22.2 103.44-22.2 103.44-22.2 103.44-22.2 103.44-22.2L103.44-22.2Q103.37-22.2 102.94-21.83 102.52-21.45 101.92-20.88 101.32-20.3 100.74-19.71 100.17-19.13 99.78-18.7 99.39-18.28 99.39-18.2L99.39-18.2 99.39-10.25ZM97.39-6.35L97.39-17.85 99.39-17.85Q99.39-16.48 99.39-15.65 99.39-14.83 99.39-14.06 99.39-13.3 99.39-12.1L99.39-12.1Q99.39-12.1 99.39-12.1 99.39-12.1 99.39-12.1L99.39-12.1Q99.39-12.1 99.39-12.1 99.39-12.1 99.39-12.1L99.39-12.1Q99.39-10.85 99.39-10.2 99.39-9.55 99.39-9.11 99.39-8.68 99.39-8.09 99.39-7.5 99.39-6.35L99.39-6.35 97.39-6.35ZM97.39-13.95L97.39-13.95 99.39-13.95 99.39-6Q99.39-5.93 99.78-5.5 100.17-5.08 100.74-4.49 101.32-3.9 101.92-3.33 102.52-2.75 102.94-2.38 103.37-2 103.44-2L103.44-2Q103.44-2 103.44-2 103.44-2 103.44-2 103.44-2 103.44-2 103.44-2 103.44-2L103.44-2Q103.74-2 104.55-2 105.37-2 106.4-2 107.44-2 108.45-2 109.47-2 110.17-2 110.87-2 110.99-2L110.99-2Q110.99-1.53 110.99-1.01 110.99-0.5 110.99 0L110.99 0Q110.99 0 110.99 0 110.99 0 110.99 0 110.99 0 110.99 0L110.99 0Q110.99 0 110.99 0 110.99 0 110.99 0L110.99 0Q110.99 0 110 0 109.02 0 107.48 0 105.94 0 104.19 0 102.44 0 100.9 0 99.37 0 98.38 0 97.39 0 97.39 0L97.39 0Q97.39 0 97.39 0 97.39 0 97.39 0 97.39 0 97.39 0 97.39 0 97.39 0L97.39 0Q97.39 0 97.39-0.7 97.39-1.4 97.39-2.6 97.39-3.8 97.39-5.28 97.39-6.75 97.39-8.31 97.39-9.88 97.39-11.35 97.39-12.83 97.39-13.95ZM123.99-10.25L123.99-10.25 121.99-10.25 121.99-18.2Q121.99-18.28 121.6-18.7 121.22-19.13 120.64-19.71 120.07-20.3 119.47-20.88 118.87-21.45 118.44-21.83 118.02-22.2 117.94-22.2L117.94-22.2Q117.94-22.2 117.94-22.2 117.94-22.2 117.94-22.2 117.94-22.2 117.94-22.2 117.94-22.2 117.94-22.2L117.94-22.2Q117.64-22.2 116.83-22.2 116.02-22.2 114.98-22.2 113.94-22.2 112.93-22.2 111.92-22.2 111.22-22.2 110.52-22.2 110.39-22.2L110.39-22.2Q110.39-22.7 110.39-23.21 110.39-23.73 110.39-24.2L110.39-24.2Q110.39-24.2 110.39-24.2 110.39-24.2 110.39-24.2 110.39-24.2 110.39-24.2L110.39-24.2Q110.39-24.2 110.39-24.2 110.39-24.2 110.39-24.2L110.39-24.2Q110.39-24.2 111.38-24.2 112.37-24.2 113.9-24.2 115.44-24.2 117.19-24.2 118.94-24.2 120.48-24.2 122.02-24.2 123-24.2 123.99-24.2 123.99-24.2L123.99-24.2Q123.99-24.2 123.99-24.2 123.99-24.2 123.99-24.2 123.99-24.2 123.99-24.2 123.99-24.2 123.99-24.2L123.99-24.2Q123.99-24.2 123.99-23.5 123.99-22.8 123.99-21.6 123.99-20.4 123.99-18.93 123.99-17.45 123.99-15.88 123.99-14.3 123.99-12.85 123.99-11.4 123.99-10.25ZM121.99-12.45L123.99-12.45Q123.99-12.45 123.99-11.55 123.99-10.65 123.99-9.24 123.99-7.83 123.99-6.23 123.99-4.63 123.99-3.21 123.99-1.8 123.99-0.9 123.99 0 123.99 0L123.99 0Q123.99 0 123.99 0 123.99 0 123.99 0 123.99 0 123.99 0 123.99 0 123.99 0L123.99 0Q123.99 0 123 0 122.02 0 120.48 0 118.94 0 117.19 0 115.44 0 113.9 0 112.37 0 111.38 0 110.39 0 110.39 0L110.39 0Q110.39 0 110.39 0 110.39 0 110.39 0L110.39 0Q110.39 0 110.39 0 110.39 0 110.39 0 110.39 0 110.39 0L110.39 0Q110.39-0.5 110.39-1.01 110.39-1.53 110.39-2L110.39-2Q110.39-2 111.57-2 112.74-2 114.47-2 116.19-2 117.92-2 119.64-2 120.82-2 121.99-2 121.99-2L121.99-2Q121.99-2 121.99-2 121.99-2 121.99-2 121.99-2 121.99-2 121.99-2 121.99-2L121.99-2Q121.99-2 121.99-2 121.99-2 121.99-2L121.99-2Q121.99-2 121.99-2 121.99-2 121.99-2 121.99-2 121.99-2 121.99-2 121.99-2 121.99-2 121.99-2L121.99-2Q121.99-2 121.99-3.05 121.99-4.1 121.99-5.66 121.99-7.23 121.99-8.79 121.99-10.35 121.99-11.4 121.99-12.45 121.99-12.45L121.99-12.45ZM113.89-16.05L113.89-16.05Q113.89-16.05 113.89-16.05 113.89-16.05 113.89-16.05 113.89-16.05 113.89-16.05 113.89-16.05 113.89-16.05 113.89-16.05 113.89-16.05L113.89-16.05Q113.89-16.05 113.89-16.05 113.89-16.05 113.89-16.05L113.89-16.05Q114.04-16.05 114.07-16.03 114.09-16 114.09-15.85L114.09-15.85Q114.09-15.58 114.09-15.31 114.09-15.05 114.09-14.79 114.09-14.53 114.09-14.25L114.09-14.25Q114.09-14.1 114.07-14.08 114.04-14.05 113.89-14.05L113.89-14.05Q113.89-14.05 113.89-14.05 113.89-14.05 113.89-14.05L113.89-14.05Q113.89-14.05 113.89-14.05 113.89-14.05 113.89-14.05 113.89-14.05 113.89-14.05 113.89-14.05 113.89-14.05 113.89-14.05 113.89-14.05L113.89-14.05Q113.89-14.05 112.95-14.05 112.02-14.05 110.79-14.05 109.57-14.05 108.63-14.05 107.69-14.05 107.69-14.05L107.69-14.05Q107.69-14.05 107.69-14.05 107.69-14.05 107.69-14.05L107.69-14.05Q107.54-14.05 107.52-14.08 107.49-14.1 107.49-14.25L107.49-14.25Q107.49-14.53 107.49-14.79 107.49-15.05 107.49-15.31 107.49-15.58 107.49-15.85L107.49-15.85Q107.49-16 107.52-16.03 107.54-16.05 107.69-16.05L107.69-16.05Q107.69-16.05 107.69-16.05 107.69-16.05 107.69-16.05L107.69-16.05Q107.69-16.05 108.63-16.05 109.57-16.05 110.79-16.05 112.02-16.05 112.95-16.05 113.89-16.05 113.89-16.05ZM122.94-11.8L122.94-8.15 121.99-8.15Q121.99-8.15 121.99-8.33 121.99-8.5 121.99-8.68 121.99-8.85 121.99-8.85L121.99-8.85Q121.99-8.85 120.98-8.7 119.97-8.55 118.48-8.34 116.99-8.13 115.5-7.91 114.02-7.7 113-7.55 111.99-7.4 111.99-7.4L111.99-7.4Q111.99-7.4 111.98-7.5 111.97-7.6 111.93-7.81 111.89-8.03 111.84-8.35L111.84-8.35Q111.79-8.68 111.75-8.9 111.72-9.13 111.7-9.24 111.69-9.35 111.69-9.35L111.69-9.35Q111.69-9.35 112.73-9.5 113.77-9.65 115.3-9.88 116.84-10.1 118.38-10.33 119.92-10.55 120.95-10.7 121.99-10.85 121.99-10.85L121.99-10.85Q121.99-10.85 121.99-11.09 121.99-11.33 121.99-11.56 121.99-11.8 121.99-11.8L121.99-11.8 122.94-11.8ZM136.29 0L136.29 0Q136.29 0 136.29 0 136.29 0 136.29 0 136.29 0 136.29 0L136.29 0Q136.29 0 136.29 0 136.29 0 136.29 0 136.29 0 136.29 0L136.29 0Q136.19 0 135.11 0 134.04 0 132.41 0 130.79 0 128.99 0 127.19 0 125.59 0 123.99 0 122.99 0 121.99 0 121.99 0L121.99 0Q121.99 0 121.99 0 121.99 0 121.99 0 121.99 0 121.99 0L121.99 0 121.99-12.9 123.99-12.9 123.99-2Q123.99-2 123.99-2 123.99-2 123.99-2 123.99-2 123.99-2L123.99-2Q123.99-2 124.86-2 125.74-2 126.89-2 128.04-2 128.91-2 129.79-2 129.79-2L129.79-2Q129.79-2 129.79-2 129.79-2 129.79-2 129.79-2 129.79-2 129.79-2 129.79-2 129.79-2 129.79-2L129.79-2Q129.79-2 130.66-2 131.54-2 132.69-2 133.84-2 134.71-2 135.59-2 135.59-2L135.59-2Q135.59-2 135.59-2 135.59-2 135.59-2L135.59-2Q135.59-2 135.59-2.13 135.59-2.25 135.59-2.88 135.59-3.5 135.59-4.95 135.59-6.4 135.59-9.05L135.59-9.05Q135.59-9.05 135.59-9.05 135.59-9.05 135.59-9.05 135.59-9.05 135.59-9.05 135.59-9.05 135.59-9.05 135.59-9.05 135.59-9.05L135.59-9.05Q135.59-9.05 136.7-9.05 137.81-9.05 139.45-9.05 141.09-9.05 142.73-9.05 144.36-9.05 145.48-9.05 146.59-9.05 146.59-9.05L146.59-9.05Q146.59-9.05 146.59-9.05 146.59-9.05 146.59-9.05L146.59-9.05Q146.59-9.05 146.59-9.05 146.59-9.05 146.59-9.05 146.59-9.05 146.59-9.05L146.59-9.05Q146.59-9.05 146.59-9.85 146.59-10.65 146.59-11.83 146.59-13 146.59-14.18 146.59-15.35 146.59-16.15 146.59-16.95 146.59-16.95L146.59-16.95Q146.59-16.95 146.59-16.95 146.59-16.95 146.59-16.95 146.59-16.95 146.59-16.95 146.59-16.95 146.59-16.95 146.59-16.95 146.59-16.95L146.59-16.95 148.59-16.95 148.59 0Q148.59 0 147.73 0 146.86 0 145.49 0 144.11 0 142.55 0 140.99 0 139.59 0 138.19 0 137.28 0 136.36 0 136.29 0L136.29 0Q136.29 0 136.29 0 136.29 0 136.29 0L136.29 0Q136.29 0 136.29 0 136.29 0 136.29 0ZM123.99-11.75L121.99-11.75Q121.99-11.75 121.99-12.65 121.99-13.55 121.99-14.96 121.99-16.38 121.99-17.98 121.99-19.58 121.99-20.99 121.99-22.4 121.99-23.3 121.99-24.2 121.99-24.2L121.99-24.2Q121.99-24.2 121.99-24.2 121.99-24.2 121.99-24.2 121.99-24.2 121.99-24.2L121.99-24.2Q121.99-24.2 122.98-24.2 123.96-24.2 125.54-24.2 127.11-24.2 128.86-24.2 130.61-24.2 132.19-24.2 133.76-24.2 134.75-24.2 135.74-24.2 135.74-24.2L135.74-24.2Q135.74-24.2 135.74-24.2 135.74-24.2 135.74-24.2 135.74-24.2 135.74-24.2L135.74-24.2Q135.74-24.2 135.74-24.2 135.74-24.2 135.74-24.2L135.74-24.2Q135.74-24.2 135.74-24.2 135.74-24.2 135.74-24.2 135.74-24.2 135.74-24.2 135.74-24.2 135.74-24.2L135.74-24.2Q135.74-23.93 135.74-23.25 135.74-22.58 135.74-21.7 135.74-20.83 135.74-19.9 135.74-18.98 135.74-18.16 135.74-17.35 135.74-16.85L135.74-16.85Q135.74-16.85 135.33-17.66 134.91-18.48 134.39-19.53 133.86-20.58 133.45-21.39 133.04-22.2 133.04-22.2L133.04-22.2Q133.04-22.2 132.13-22.2 131.21-22.2 129.86-22.2 128.51-22.2 127.16-22.2 125.81-22.2 124.9-22.2 123.99-22.2 123.99-22.2L123.99-22.2Q123.99-22.2 123.99-22.2 123.99-22.2 123.99-22.2 123.99-22.2 123.99-22.2 123.99-22.2 123.99-22.2L123.99-22.2Q123.99-22.2 123.99-22.2 123.99-22.2 123.99-22.2L123.99-22.2Q123.99-22.2 123.99-22.2 123.99-22.2 123.99-22.2 123.99-22.2 123.99-22.2 123.99-22.2 123.99-22.2 123.99-22.2 123.99-22.2L123.99-22.2Q123.99-22.2 123.99-21.15 123.99-20.1 123.99-18.54 123.99-16.98 123.99-15.41 123.99-13.85 123.99-12.8 123.99-11.75 123.99-11.75L123.99-11.75ZM148.59-14.15L148.59-14.15 146.59-14.15Q146.59-14.15 146.59-14.15 146.59-14.15 146.59-14.15L146.59-14.15Q146.59-14.15 146.59-14.15 146.59-14.15 146.59-14.15L146.59-14.15Q146.59-14.15 146.59-14.23 146.59-14.3 146.59-14.66 146.59-15.03 146.59-15.88 146.59-16.73 146.59-18.25 146.59-19.78 146.59-22.2L146.59-22.2Q146.59-22.2 146.59-22.2 146.59-22.2 146.59-22.2 146.59-22.2 146.59-22.2 146.59-22.2 146.59-22.2L146.59-22.2Q146.59-22.2 146-22.2 145.41-22.2 144.5-22.2 143.59-22.2 142.56-22.2 141.54-22.2 140.63-22.2 139.71-22.2 139.13-22.2 138.54-22.2 138.54-22.2L138.54-22.2Q138.54-22.2 138.11-21.39 137.69-20.58 137.14-19.53 136.59-18.48 136.16-17.66 135.74-16.85 135.74-16.85L135.74-16.85Q135.74-16.85 135.74-16.85 135.74-16.85 135.74-16.85 135.74-16.85 135.74-16.85L135.74-16.85Q135.74-16.85 135.63-17.66 135.51-18.48 135.38-19.53 135.24-20.58 135.13-21.39 135.01-22.2 135.01-22.2L135.01-22.2Q135.01-22.2 135.01-22.4 135.01-22.6 135.01-22.9 135.01-23.2 135.01-23.5 135.01-23.8 135.01-24 135.01-24.2 135.01-24.2L135.01-24.2Q135.01-24.2 135.01-24.2 135.01-24.2 135.01-24.2 135.01-24.2 135.01-24.2 135.01-24.2 135.01-24.2L135.01-24.2Q135.01-24.2 135.99-24.2 136.96-24.2 138.51-24.2 140.06-24.2 141.8-24.2 143.54-24.2 145.09-24.2 146.64-24.2 147.61-24.2 148.59-24.2 148.59-24.2L148.59-24.2Q148.59-24.2 148.59-24.2 148.59-24.2 148.59-24.2 148.59-24.2 148.59-24.2L148.59-24.2Q148.59-24.2 148.59-24.2 148.59-24.2 148.59-24.2 148.59-24.2 148.59-24.2 148.59-24.2 148.59-24.2 148.59-24.2 148.59-24.2L148.59-24.2Q148.59-24.2 148.59-24.2 148.59-24.2 148.59-24.2 148.59-24.2 148.59-24.2 148.59-24.2 148.59-24.2L148.59-24.2Q148.59-24.2 148.59-23.48 148.59-22.75 148.59-21.6 148.59-20.45 148.59-19.18 148.59-17.9 148.59-16.75 148.59-15.6 148.59-14.88 148.59-14.15 148.59-14.15ZM146.64 0L146.59-10.4 148.59-10.4 148.59-9.2Q148.59-9.2 148.59-9.2 148.59-9.2 148.59-9.2 148.59-9.2 148.59-9.2 148.59-9.2 148.59-9.2L148.59-9.2Q148.59-9.18 149.28-8.44 149.99-7.7 151.02-6.63 152.06-5.55 153.11-4.49 154.16-3.43 154.89-2.71 155.61-2 155.64-2L155.64-2Q155.64-2 155.64-2 155.64-2 155.64-2 155.64-2 155.64-2 155.64-2 155.64-2L155.64-2Q155.64-2 156.47-2 157.31-2 158.41-2 159.51-2 160.35-2 161.19-2 161.19-2L161.19-2Q161.19-1.53 161.19-1.01 161.19-0.5 161.19 0L161.19 0Q161.19 0 161.19 0 161.19 0 161.19 0 161.19 0 161.19 0L161.19 0Q159.99 0 158.96 0 157.94 0 157.11 0 156.28 0 155.65 0 155.01 0 154.56 0 154.11 0 153.87 0 153.64 0 153.59 0L153.59 0Q153.41 0 153.02 0 152.64 0 152.11 0 151.59 0 150.94 0 150.28 0 149.57 0 148.86 0 148.12 0 147.39 0 146.64 0L146.64 0Q146.64 0 146.64 0 146.64 0 146.64 0 146.64 0 146.64 0 146.64 0 146.64 0L146.64 0ZM173.19-10.4L175.19-10.4 175.14 0Q175.14 0 175.14 0 175.14 0 175.14 0 175.14 0 175.14 0 175.14 0 175.14 0L175.14 0Q174.41 0 173.66 0 172.91 0 172.2 0 171.49 0 170.84 0 170.19 0 169.66 0 169.14 0 168.76 0 168.39 0 168.19 0L168.19 0Q168.16 0 167.91 0 167.66 0 167.21 0 166.76 0 166.12 0 165.49 0 164.66 0 163.84 0 162.81 0 161.78 0 160.59 0L160.59 0Q160.59 0 160.59 0 160.59 0 160.59 0 160.59 0 160.59 0L160.59 0Q160.59-0.5 160.59-1.01 160.59-1.53 160.59-2L160.59-2Q160.59-2 161.42-2 162.26-2 163.36-2 164.46-2 165.3-2 166.14-2 166.14-2L166.14-2Q166.14-2 166.14-2 166.14-2 166.14-2 166.14-2 166.14-2 166.14-2 166.14-2L166.14-2Q166.16-2 166.89-2.71 167.61-3.43 168.66-4.49 169.71-5.55 170.75-6.63 171.79-7.7 172.49-8.44 173.19-9.18 173.19-9.2L173.19-9.2Q173.19-9.2 173.19-9.2 173.19-9.2 173.19-9.2 173.19-9.2 173.19-9.2 173.19-9.2 173.19-9.2L173.19-9.2 173.19-10.4ZM175.19-19.4L175.19-7.9 173.19-7.9Q173.19-9.28 173.19-10.1 173.19-10.93 173.19-11.69 173.19-12.45 173.19-13.65L173.19-13.65Q173.19-13.65 173.19-13.65 173.19-13.65 173.19-13.65L173.19-13.65Q173.19-13.65 173.19-13.65 173.19-13.65 173.19-13.65L173.19-13.65Q173.19-14.9 173.19-15.55 173.19-16.2 173.19-16.64 173.19-17.07 173.19-17.66 173.19-18.25 173.19-19.4L173.19-19.4 175.19-19.4ZM148.59-7.9L146.59-7.9 146.59-19.4 148.59-19.4Q148.59-18.25 148.59-17.66 148.59-17.07 148.59-16.64 148.59-16.2 148.59-15.55 148.59-14.9 148.59-13.65L148.59-13.65Q148.59-13.65 148.59-13.65 148.59-13.65 148.59-13.65L148.59-13.65Q148.59-13.65 148.59-13.65 148.59-13.65 148.59-13.65L148.59-13.65Q148.59-12.45 148.59-11.69 148.59-10.93 148.59-10.1 148.59-9.28 148.59-7.9L148.59-7.9ZM148.59-10.25L146.59-10.25Q146.59-10.25 146.59-11.26 146.59-12.28 146.59-13.86 146.59-15.45 146.59-17.23 146.59-19 146.59-20.59 146.59-22.18 146.59-23.19 146.59-24.2 146.59-24.2L146.59-24.2Q146.59-24.2 146.59-24.2 146.59-24.2 146.59-24.2 146.59-24.2 146.59-24.2 146.59-24.2 146.59-24.2L146.59-24.2Q146.59-24.2 147.64-24.2 148.69-24.2 150.35-24.2 152.01-24.2 153.89-24.2 155.76-24.2 157.42-24.2 159.09-24.2 160.14-24.2 161.19-24.2 161.19-24.2L161.19-24.2Q161.19-24.2 161.19-24.2 161.19-24.2 161.19-24.2L161.19-24.2Q161.19-24.2 161.19-24.2 161.19-24.2 161.19-24.2 161.19-24.2 161.19-24.2L161.19-24.2Q161.19-23.73 161.19-23.21 161.19-22.7 161.19-22.2L161.19-22.2Q161.19-22.2 160.27-22.2 159.36-22.2 157.92-22.2 156.49-22.2 154.89-22.2 153.28-22.2 151.85-22.2 150.41-22.2 149.5-22.2 148.59-22.2 148.59-22.2L148.59-22.2Q148.59-22.2 148.59-22.2 148.59-22.2 148.59-22.2 148.59-22.2 148.59-22.2 148.59-22.2 148.59-22.2L148.59-22.2Q148.59-22.2 148.59-22.2 148.59-22.2 148.59-22.2 148.59-22.2 148.59-22.2L148.59-22.2Q148.59-22.2 148.59-22.2 148.59-22.2 148.59-22.2 148.59-22.2 148.59-22.2 148.59-22.2 148.59-22.2 148.59-22.2 148.59-22.2 148.59-22.2 148.59-22.2L148.59-22.2Q148.59-22.2 148.59-21.34 148.59-20.48 148.59-19.11 148.59-17.75 148.59-16.23 148.59-14.7 148.59-13.34 148.59-11.98 148.59-11.11 148.59-10.25 148.59-10.25L148.59-10.25ZM175.19-10.25L175.19-10.25 173.19-10.25Q173.19-10.25 173.19-11.11 173.19-11.98 173.19-13.34 173.19-14.7 173.19-16.23 173.19-17.75 173.19-19.11 173.19-20.48 173.19-21.34 173.19-22.2 173.19-22.2L173.19-22.2Q173.19-22.2 173.19-22.2 173.19-22.2 173.19-22.2 173.19-22.2 173.19-22.2 173.19-22.2 173.19-22.2 173.19-22.2 173.19-22.2 173.19-22.2 173.19-22.2L173.19-22.2Q173.19-22.2 173.19-22.2 173.19-22.2 173.19-22.2 173.19-22.2 173.19-22.2L173.19-22.2Q173.19-22.2 173.19-22.2 173.19-22.2 173.19-22.2 173.19-22.2 173.19-22.2 173.19-22.2 173.19-22.2L173.19-22.2Q173.19-22.2 172.27-22.2 171.36-22.2 169.92-22.2 168.49-22.2 166.89-22.2 165.28-22.2 163.85-22.2 162.41-22.2 161.5-22.2 160.59-22.2 160.59-22.2L160.59-22.2Q160.59-22.7 160.59-23.21 160.59-23.73 160.59-24.2L160.59-24.2Q160.59-24.2 160.59-24.2 160.59-24.2 160.59-24.2 160.59-24.2 160.59-24.2L160.59-24.2Q160.59-24.2 160.59-24.2 160.59-24.2 160.59-24.2L160.59-24.2Q160.59-24.2 161.64-24.2 162.69-24.2 164.35-24.2 166.01-24.2 167.89-24.2 169.76-24.2 171.42-24.2 173.09-24.2 174.14-24.2 175.19-24.2 175.19-24.2L175.19-24.2Q175.19-24.2 175.19-24.2 175.19-24.2 175.19-24.2 175.19-24.2 175.19-24.2 175.19-24.2 175.19-24.2L175.19-24.2Q175.19-24.2 175.19-23.19 175.19-22.18 175.19-20.59 175.19-19 175.19-17.23 175.19-15.45 175.19-13.86 175.19-12.28 175.19-11.26 175.19-10.25 175.19-10.25ZM160.09-22.3L160.09-22.3Q160.09-22.3 160.49-22.3 160.89-22.3 161.28-22.3 161.69-22.3 161.69-22.3L161.69-22.3Q161.76-22.3 161.8-22.3 161.84-22.3 161.86-22.28 161.89-22.25 161.89-22.21 161.89-22.18 161.89-22.1L161.89-22.1Q161.89-22.1 161.89-22.1 161.89-22.1 161.89-22.1 161.89-22.1 161.89-22.1 161.89-22.1 161.89-22.1 161.89-22.1 161.89-22.1L161.89-22.1Q161.89-22.1 161.89-21.33 161.89-20.55 161.89-19.34 161.89-18.13 161.89-16.75 161.89-15.38 161.89-14.16 161.89-12.95 161.89-12.18 161.89-11.4 161.89-11.4L161.89-11.4Q161.89-11.3 161.87-11.26 161.86-11.23 161.82-11.21 161.78-11.2 161.69-11.2L161.69-11.2Q161.69-11.2 161.28-11.2 160.89-11.2 160.49-11.2 160.09-11.2 160.09-11.2L160.09-11.2Q159.99-11.2 159.95-11.21 159.91-11.23 159.9-11.26 159.89-11.3 159.89-11.4L159.89-11.4Q159.89-11.4 159.89-12.18 159.89-12.95 159.89-14.16 159.89-15.38 159.89-16.75 159.89-18.13 159.89-19.34 159.89-20.55 159.89-21.33 159.89-22.1 159.89-22.1L159.89-22.1Q159.89-22.1 159.89-22.1 159.89-22.1 159.89-22.1 159.89-22.1 159.89-22.1 159.89-22.1 159.89-22.1 159.89-22.1 159.89-22.1L159.89-22.1Q159.89-22.18 159.89-22.21 159.89-22.25 159.91-22.28 159.94-22.3 159.97-22.3 160.01-22.3 160.09-22.3ZM186.73-12.45L188.73-12.45Q188.73-11.43 188.73-10.21 188.73-9 188.73-7.69 188.73-6.38 188.73-5.04 188.73-3.7 188.73-2.43 188.73-1.15 188.73 0L188.73 0Q188.73 0 187.94 0 187.16 0 186 0 184.83 0 183.67 0 182.51 0 181.72 0 180.93 0 180.93 0L180.93 0Q180.93 0 180.93 0 180.93 0 180.93 0L180.93 0Q180.93 0 180.93 0 180.93 0 180.93 0L180.93 0Q180.76-0.38 180.76-1 180.76-1.63 180.93-2L180.93-2Q181.46-2 182.11-2 182.76-2 183.5-2 184.23-2 185.06-2 185.88-2 186.73-2L186.73-2Q186.73-2 186.73-2 186.73-2 186.73-2 186.73-2 186.73-2 186.73-2 186.73-2L186.73-2Q186.73-2 186.73-2 186.73-2 186.73-2L186.73-2Q186.73-2 186.73-2 186.73-2 186.73-2L186.73-2Q186.73-2 186.73-3.05 186.73-4.1 186.73-5.66 186.73-7.23 186.73-8.79 186.73-10.35 186.73-11.4 186.73-12.45 186.73-12.45L186.73-12.45ZM173.18-12.45L173.18-12.45 175.18-12.45Q175.18-12.45 175.18-11.4 175.18-10.35 175.18-8.79 175.18-7.23 175.18-5.66 175.18-4.1 175.18-3.05 175.18-2 175.18-2L175.18-2Q175.18-2 175.18-2 175.18-2 175.18-2L175.18-2Q175.18-2 175.18-2 175.18-2 175.18-2L175.18-2Q175.18-2 175.18-2 175.18-2 175.18-2 175.18-2 175.18-2 175.18-2 175.18-2L175.18-2Q176.06-2 176.87-2 177.68-2 178.42-2 179.16-2 179.81-2 180.46-2 180.98-2L180.98-2Q181.18-1.63 181.18-1 181.18-0.38 180.98 0L180.98 0Q180.98 0 180.98 0 180.98 0 180.98 0L180.98 0Q180.98 0 180.98 0 180.98 0 180.98 0L180.98 0Q180.98 0 180.19 0 179.41 0 178.25 0 177.08 0 175.92 0 174.76 0 173.97 0 173.18 0 173.18 0L173.18 0Q173.18-1.15 173.18-2.43 173.18-3.7 173.18-5.04 173.18-6.38 173.18-7.69 173.18-9 173.18-10.21 173.18-11.43 173.18-12.45ZM173.18-6.4L173.18-17.9 175.18-17.9Q175.18-16.53 175.18-15.7 175.18-14.88 175.18-14.11 175.18-13.35 175.18-12.15L175.18-12.15Q175.18-12.15 175.18-12.15 175.18-12.15 175.18-12.15L175.18-12.15Q175.18-12.15 175.18-12.15 175.18-12.15 175.18-12.15L175.18-12.15Q175.18-10.9 175.18-10.25 175.18-9.6 175.18-9.16 175.18-8.72 175.18-8.14 175.18-7.55 175.18-6.4L175.18-6.4 173.18-6.4ZM186.73-17.9L188.73-17.9 188.73-6.4 186.73-6.4Q186.73-7.55 186.73-8.14 186.73-8.72 186.73-9.16 186.73-9.6 186.73-10.25 186.73-10.9 186.73-12.15L186.73-12.15Q186.73-12.15 186.73-12.15 186.73-12.15 186.73-12.15L186.73-12.15Q186.73-12.15 186.73-12.15 186.73-12.15 186.73-12.15L186.73-12.15Q186.73-13.35 186.73-14.11 186.73-14.88 186.73-15.7 186.73-16.53 186.73-17.9L186.73-17.9ZM188.73-16.85L188.73-16.85 186.73-16.85Q186.73-16.85 186.73-17.9 186.73-18.95 186.73-20.51 186.73-22.08 186.73-23.64 186.73-25.2 186.73-26.25 186.73-27.3 186.73-27.3L186.73-27.3Q186.73-27.3 186.73-27.3 186.73-27.3 186.73-27.3L186.73-27.3Q186.73-27.3 186.73-27.3 186.73-27.3 186.73-27.3L186.73-27.3Q186.73-27.3 186.73-27.3 186.73-27.3 186.73-27.3 186.73-27.3 186.73-27.3 186.73-27.3 186.73-27.3L186.73-27.3Q185.88-27.3 185.06-27.3 184.23-27.3 183.5-27.3 182.76-27.3 182.11-27.3 181.46-27.3 180.93-27.3L180.93-27.3Q180.76-27.68 180.76-28.3 180.76-28.93 180.93-29.3L180.93-29.3Q180.93-29.3 180.93-29.3 180.93-29.3 180.93-29.3L180.93-29.3Q180.93-29.3 180.93-29.3 180.93-29.3 180.93-29.3L180.93-29.3Q180.93-29.3 181.72-29.3 182.51-29.3 183.67-29.3 184.83-29.3 186-29.3 187.16-29.3 187.94-29.3 188.73-29.3 188.73-29.3L188.73-29.3Q188.73-28.15 188.73-26.88 188.73-25.6 188.73-24.26 188.73-22.93 188.73-21.61 188.73-20.3 188.73-19.09 188.73-17.88 188.73-16.85ZM175.18-16.85L173.18-16.85Q173.18-17.88 173.18-19.09 173.18-20.3 173.18-21.61 173.18-22.93 173.18-24.26 173.18-25.6 173.18-26.88 173.18-28.15 173.18-29.3L173.18-29.3Q173.18-29.3 173.97-29.3 174.76-29.3 175.92-29.3 177.08-29.3 178.25-29.3 179.41-29.3 180.19-29.3 180.98-29.3 180.98-29.3L180.98-29.3Q180.98-29.3 180.98-29.3 180.98-29.3 180.98-29.3L180.98-29.3Q180.98-29.3 180.98-29.3 180.98-29.3 180.98-29.3L180.98-29.3Q181.18-28.93 181.18-28.3 181.18-27.68 180.98-27.3L180.98-27.3Q180.46-27.3 179.81-27.3 179.16-27.3 178.42-27.3 177.68-27.3 176.87-27.3 176.06-27.3 175.18-27.3L175.18-27.3Q175.18-27.3 175.18-27.3 175.18-27.3 175.18-27.3 175.18-27.3 175.18-27.3 175.18-27.3 175.18-27.3L175.18-27.3Q175.18-27.3 175.18-27.3 175.18-27.3 175.18-27.3L175.18-27.3Q175.18-27.3 175.18-27.3 175.18-27.3 175.18-27.3L175.18-27.3Q175.18-27.3 175.18-26.25 175.18-25.2 175.18-23.64 175.18-22.08 175.18-20.51 175.18-18.95 175.18-17.9 175.18-16.85 175.18-16.85L175.18-16.85ZM188.73-15.35L188.73-15.35 186.73-15.35Q186.73-16.1 186.73-16.89 186.73-17.68 186.73-18.35 186.73-19.03 186.73-19.44 186.73-19.85 186.73-19.85L186.73-19.85Q186.73-19.85 186.73-19.85 186.73-19.85 186.73-19.85L186.73-19.85Q186.73-19.85 186.73-19.93 186.73-20 186.73-20.24 186.73-20.48 186.73-20.99 186.73-21.5 186.73-22.35L186.73-22.35Q186.73-22.35 186.73-22.35 186.73-22.35 186.73-22.35L186.73-22.35Q186.73-22.35 185.87-22.35 185.01-22.35 183.86-22.35 182.71-22.35 181.84-22.35 180.98-22.35 180.98-22.35L180.98-22.35Q180.98-22.35 180.98-22.64 180.98-22.93 180.98-23.3 180.98-23.68 180.98-23.96 180.98-24.25 180.98-24.25L180.98-24.25Q181.33-24.25 181.76-24.25 182.18-24.25 182.82-24.25 183.46-24.25 184.36-24.25 185.26-24.25 186.53-24.25L186.53-24.25Q186.71-24.25 187.06-24.25 187.41-24.25 187.73-24.25 188.06-24.25 188.18-24.25L188.18-24.25Q188.28-24.25 188.37-24.25 188.46-24.25 188.55-24.25 188.63-24.25 188.73-24.25L188.73-24.25Q188.73-23.48 188.73-22.28 188.73-21.08 188.73-19.75 188.73-18.43 188.73-17.25 188.73-16.07 188.73-15.35ZM175.18-15.35L173.18-15.35Q173.18-16.07 173.18-17.25 173.18-18.43 173.18-19.75 173.18-21.08 173.18-22.28 173.18-23.48 173.18-24.25L173.18-24.25Q173.28-24.25 173.37-24.25 173.46-24.25 173.55-24.25 173.63-24.25 173.73-24.25L173.73-24.25Q173.86-24.25 174.18-24.25 174.51-24.25 174.86-24.25 175.21-24.25 175.38-24.25L175.38-24.25Q176.23-24.25 176.92-24.25 177.61-24.25 178.15-24.25 178.68-24.25 179.12-24.25 179.56-24.25 179.9-24.25 180.23-24.25 180.5-24.25 180.76-24.25 180.98-24.25L180.98-24.25Q180.98-24.25 180.98-23.96 180.98-23.68 180.98-23.3 180.98-22.93 180.98-22.64 180.98-22.35 180.98-22.35L180.98-22.35Q180.98-22.35 180.4-22.35 179.81-22.35 178.94-22.35 178.08-22.35 177.22-22.35 176.36-22.35 175.77-22.35 175.18-22.35 175.18-22.35L175.18-22.35Q175.18-22.35 175.18-22.35 175.18-22.35 175.18-22.35L175.18-22.35Q175.18-21.5 175.18-20.99 175.18-20.48 175.18-20.24 175.18-20 175.18-19.93 175.18-19.85 175.18-19.85L175.18-19.85Q175.18-19.85 175.18-19.85 175.18-19.85 175.18-19.85L175.18-19.85Q175.18-19.85 175.18-19.44 175.18-19.03 175.18-18.35 175.18-17.68 175.18-16.89 175.18-16.1 175.18-15.35L175.18-15.35ZM186.73-13.95L186.73-13.95 188.73-13.95 188.73-6Q188.73-5.93 189.12-5.5 189.51-5.08 190.08-4.49 190.66-3.9 191.26-3.33 191.86-2.75 192.28-2.38 192.71-2 192.78-2L192.78-2Q192.78-2 192.78-2 192.78-2 192.78-2 192.78-2 192.78-2 192.78-2 192.78-2L192.78-2Q193.08-2 193.89-2 194.71-2 195.74-2 196.78-2 197.79-2 198.81-2 199.51-2 200.21-2 200.33-2L200.33-2Q200.33-1.53 200.33-1.01 200.33-0.5 200.33 0L200.33 0Q200.33 0 200.33 0 200.33 0 200.33 0 200.33 0 200.33 0L200.33 0Q200.33 0 200.33 0 200.33 0 200.33 0L200.33 0Q200.33 0 199.34 0 198.36 0 196.82 0 195.28 0 193.53 0 191.78 0 190.24 0 188.71 0 187.72 0 186.73 0 186.73 0L186.73 0Q186.73 0 186.73 0 186.73 0 186.73 0 186.73 0 186.73 0 186.73 0 186.73 0L186.73 0Q186.73 0 186.73-0.7 186.73-1.4 186.73-2.6 186.73-3.8 186.73-5.28 186.73-6.75 186.73-8.31 186.73-9.88 186.73-11.35 186.73-12.83 186.73-13.95ZM188.73-10.25L186.73-10.25Q186.73-11.4 186.73-12.85 186.73-14.3 186.73-15.88 186.73-17.45 186.73-18.93 186.73-20.4 186.73-21.6 186.73-22.8 186.73-23.5 186.73-24.2 186.73-24.2L186.73-24.2Q186.73-24.2 186.73-24.2 186.73-24.2 186.73-24.2 186.73-24.2 186.73-24.2 186.73-24.2 186.73-24.2L186.73-24.2Q186.73-24.2 187.72-24.2 188.71-24.2 190.24-24.2 191.78-24.2 193.53-24.2 195.28-24.2 196.82-24.2 198.36-24.2 199.34-24.2 200.33-24.2 200.33-24.2L200.33-24.2Q200.33-24.2 200.33-24.2 200.33-24.2 200.33-24.2L200.33-24.2Q200.33-24.2 200.33-24.2 200.33-24.2 200.33-24.2 200.33-24.2 200.33-24.2L200.33-24.2Q200.33-23.73 200.33-23.21 200.33-22.7 200.33-22.2L200.33-22.2Q200.21-22.2 199.51-22.2 198.81-22.2 197.79-22.2 196.78-22.2 195.74-22.2 194.71-22.2 193.89-22.2 193.08-22.2 192.78-22.2L192.78-22.2Q192.78-22.2 192.78-22.2 192.78-22.2 192.78-22.2 192.78-22.2 192.78-22.2 192.78-22.2 192.78-22.2L192.78-22.2Q192.71-22.2 192.28-21.83 191.86-21.45 191.26-20.88 190.66-20.3 190.08-19.71 189.51-19.13 189.12-18.7 188.73-18.28 188.73-18.2L188.73-18.2 188.73-10.25ZM188.73-6.4L186.73-6.4 186.73-17.9 188.73-17.9Q188.73-16.75 188.73-16.16 188.73-15.58 188.73-15.14 188.73-14.7 188.73-14.05 188.73-13.4 188.73-12.15L188.73-12.15Q188.73-12.15 188.73-12.15 188.73-12.15 188.73-12.15L188.73-12.15Q188.73-12.15 188.73-12.15 188.73-12.15 188.73-12.15L188.73-12.15Q188.73-10.95 188.73-10.19 188.73-9.43 188.73-8.6 188.73-7.78 188.73-6.4L188.73-6.4ZM201.68-12.95L201.68-12.95Q201.68-13.05 201.69-13.09 201.71-13.13 201.74-13.14 201.78-13.15 201.88-13.15L201.88-13.15Q201.88-13.15 202.91-13.15 203.93-13.15 205.46-13.15 206.98-13.15 208.51-13.15 210.03-13.15 211.06-13.15 212.08-13.15 212.08-13.15L212.08-13.15Q212.08-13.15 212.08-13.15 212.08-13.15 212.08-13.15 212.08-13.15 212.08-13.15 212.08-13.15 212.08-13.15 212.08-13.15 212.08-13.15L212.08-13.15Q212.18-13.15 212.22-13.14 212.26-13.13 212.27-13.09 212.28-13.05 212.28-12.95L212.28-12.95Q212.28-12.95 212.28-12.79 212.28-12.63 212.28-12.39 212.28-12.15 212.28-11.91 212.28-11.68 212.28-11.51 212.28-11.35 212.28-11.35L212.28-11.35Q212.28-11.2 212.26-11.18 212.23-11.15 212.08-11.15L212.08-11.15Q212.08-11.15 212.08-11.15 212.08-11.15 212.08-11.15 212.08-11.15 212.08-11.15 212.08-11.15 212.08-11.15 212.08-11.15 212.08-11.15L212.08-11.15Q212.08-11.15 211.06-11.15 210.03-11.15 208.51-11.15 206.98-11.15 205.46-11.15 203.93-11.15 202.91-11.15 201.88-11.15 201.88-11.15L201.88-11.15Q201.78-11.15 201.74-11.16 201.71-11.18 201.69-11.21 201.68-11.25 201.68-11.35L201.68-11.35Q201.68-11.35 201.68-11.75 201.68-12.15 201.68-12.55 201.68-12.95 201.68-12.95ZM211.33-12.45L213.33-12.45Q213.33-12.45 213.33-11.55 213.33-10.65 213.33-9.24 213.33-7.83 213.33-6.23 213.33-4.63 213.33-3.21 213.33-1.8 213.33-0.9 213.33 0 213.33 0L213.33 0Q213.33 0 213.33 0 213.33 0 213.33 0 213.33 0 213.33 0 213.33 0 213.33 0L213.33 0Q213.33 0 212.34 0 211.36 0 209.82 0 208.28 0 206.53 0 204.78 0 203.24 0 201.71 0 200.72 0 199.73 0 199.73 0L199.73 0Q199.73 0 199.73 0 199.73 0 199.73 0L199.73 0Q199.73 0 199.73 0 199.73 0 199.73 0 199.73 0 199.73 0L199.73 0Q199.73-0.5 199.73-1.01 199.73-1.53 199.73-2L199.73-2Q199.73-2 200.91-2 202.08-2 203.81-2 205.53-2 207.26-2 208.98-2 210.16-2 211.33-2 211.33-2L211.33-2Q211.33-2 211.33-2 211.33-2 211.33-2 211.33-2 211.33-2 211.33-2 211.33-2L211.33-2Q211.33-2 211.33-2 211.33-2 211.33-2L211.33-2Q211.33-2 211.33-2 211.33-2 211.33-2 211.33-2 211.33-2 211.33-2 211.33-2 211.33-2 211.33-2L211.33-2Q211.33-2 211.33-3.05 211.33-4.1 211.33-5.66 211.33-7.23 211.33-8.79 211.33-10.35 211.33-11.4 211.33-12.45 211.33-12.45L211.33-12.45ZM213.33-11.75L213.33-11.75 211.33-11.75Q211.33-11.75 211.33-12.8 211.33-13.85 211.33-15.41 211.33-16.98 211.33-18.54 211.33-20.1 211.33-21.15 211.33-22.2 211.33-22.2L211.33-22.2Q211.33-22.2 211.33-22.2 211.33-22.2 211.33-22.2 211.33-22.2 211.33-22.2 211.33-22.2 211.33-22.2 211.33-22.2 211.33-22.2L211.33-22.2Q211.33-22.2 211.33-22.2 211.33-22.2 211.33-22.2L211.33-22.2Q211.33-22.2 211.33-22.2 211.33-22.2 211.33-22.2 211.33-22.2 211.33-22.2 211.33-22.2 211.33-22.2L211.33-22.2Q211.33-22.2 210.16-22.2 208.98-22.2 207.26-22.2 205.53-22.2 203.81-22.2 202.08-22.2 200.91-22.2 199.73-22.2 199.73-22.2L199.73-22.2Q199.73-22.7 199.73-23.21 199.73-23.73 199.73-24.2L199.73-24.2Q199.73-24.2 199.73-24.2 199.73-24.2 199.73-24.2 199.73-24.2 199.73-24.2L199.73-24.2Q199.73-24.2 199.73-24.2 199.73-24.2 199.73-24.2L199.73-24.2Q199.73-24.2 200.72-24.2 201.71-24.2 203.24-24.2 204.78-24.2 206.53-24.2 208.28-24.2 209.82-24.2 211.36-24.2 212.34-24.2 213.33-24.2 213.33-24.2L213.33-24.2Q213.33-24.2 213.33-24.2 213.33-24.2 213.33-24.2 213.33-24.2 213.33-24.2 213.33-24.2 213.33-24.2L213.33-24.2Q213.33-24.2 213.33-23.3 213.33-22.4 213.33-20.99 213.33-19.58 213.33-17.98 213.33-16.38 213.33-14.96 213.33-13.55 213.33-12.65 213.33-11.75 213.33-11.75ZM213.33-10.25L211.33-10.25Q211.33-11.4 211.33-12.85 211.33-14.3 211.33-15.88 211.33-17.45 211.33-18.93 211.33-20.4 211.33-21.6 211.33-22.8 211.33-23.5 211.33-24.2 211.33-24.2L211.33-24.2Q211.33-24.2 211.33-24.2 211.33-24.2 211.33-24.2 211.33-24.2 211.33-24.2 211.33-24.2 211.33-24.2L211.33-24.2Q211.33-24.2 212.32-24.2 213.3-24.2 214.84-24.2 216.38-24.2 218.13-24.2 219.88-24.2 221.42-24.2 222.95-24.2 223.94-24.2 224.93-24.2 224.93-24.2L224.93-24.2Q224.93-24.2 224.93-24.2 224.93-24.2 224.93-24.2L224.93-24.2Q224.93-24.2 224.93-24.2 224.93-24.2 224.93-24.2 224.93-24.2 224.93-24.2L224.93-24.2Q224.93-23.73 224.93-23.21 224.93-22.7 224.93-22.2L224.93-22.2Q224.8-22.2 224.1-22.2 223.4-22.2 222.39-22.2 221.38-22.2 220.34-22.2 219.3-22.2 218.49-22.2 217.68-22.2 217.38-22.2L217.38-22.2Q217.38-22.2 217.38-22.2 217.38-22.2 217.38-22.2 217.38-22.2 217.38-22.2 217.38-22.2 217.38-22.2L217.38-22.2Q217.3-22.2 216.88-21.83 216.45-21.45 215.85-20.88 215.25-20.3 214.68-19.71 214.1-19.13 213.72-18.7 213.33-18.28 213.33-18.2L213.33-18.2 213.33-10.25ZM211.33-6.35L211.33-17.85 213.33-17.85Q213.33-16.48 213.33-15.65 213.33-14.83 213.33-14.06 213.33-13.3 213.33-12.1L213.33-12.1Q213.33-12.1 213.33-12.1 213.33-12.1 213.33-12.1L213.33-12.1Q213.33-12.1 213.33-12.1 213.33-12.1 213.33-12.1L213.33-12.1Q213.33-10.85 213.33-10.2 213.33-9.55 213.33-9.11 213.33-8.68 213.33-8.09 213.33-7.5 213.33-6.35L213.33-6.35 211.33-6.35ZM211.33-13.95L211.33-13.95 213.33-13.95 213.33-6Q213.33-5.93 213.72-5.5 214.1-5.08 214.68-4.49 215.25-3.9 215.85-3.33 216.45-2.75 216.88-2.38 217.3-2 217.38-2L217.38-2Q217.38-2 217.38-2 217.38-2 217.38-2 217.38-2 217.38-2 217.38-2 217.38-2L217.38-2Q217.68-2 218.49-2 219.3-2 220.34-2 221.38-2 222.39-2 223.4-2 224.1-2 224.8-2 224.93-2L224.93-2Q224.93-1.53 224.93-1.01 224.93-0.5 224.93 0L224.93 0Q224.93 0 224.93 0 224.93 0 224.93 0 224.93 0 224.93 0L224.93 0Q224.93 0 224.93 0 224.93 0 224.93 0L224.93 0Q224.93 0 223.94 0 222.95 0 221.42 0 219.88 0 218.13 0 216.38 0 214.84 0 213.3 0 212.32 0 211.33 0 211.33 0L211.33 0Q211.33 0 211.33 0 211.33 0 211.33 0 211.33 0 211.33 0 211.33 0 211.33 0L211.33 0Q211.33 0 211.33-0.7 211.33-1.4 211.33-2.6 211.33-3.8 211.33-5.28 211.33-6.75 211.33-8.31 211.33-9.88 211.33-11.35 211.33-12.83 211.33-13.95ZM237.93-10.25L237.93-10.25 235.93-10.25 235.93-18.2Q235.93-18.28 235.54-18.7 235.15-19.13 234.58-19.71 234-20.3 233.4-20.88 232.8-21.45 232.38-21.83 231.95-22.2 231.88-22.2L231.88-22.2Q231.88-22.2 231.88-22.2 231.88-22.2 231.88-22.2 231.88-22.2 231.88-22.2 231.88-22.2 231.88-22.2L231.88-22.2Q231.58-22.2 230.77-22.2 229.95-22.2 228.92-22.2 227.88-22.2 226.87-22.2 225.85-22.2 225.15-22.2 224.45-22.2 224.33-22.2L224.33-22.2Q224.33-22.7 224.33-23.21 224.33-23.73 224.33-24.2L224.33-24.2Q224.33-24.2 224.33-24.2 224.33-24.2 224.33-24.2 224.33-24.2 224.33-24.2L224.33-24.2Q224.33-24.2 224.33-24.2 224.33-24.2 224.33-24.2L224.33-24.2Q224.33-24.2 225.32-24.2 226.3-24.2 227.84-24.2 229.38-24.2 231.13-24.2 232.88-24.2 234.42-24.2 235.95-24.2 236.94-24.2 237.93-24.2 237.93-24.2L237.93-24.2Q237.93-24.2 237.93-24.2 237.93-24.2 237.93-24.2 237.93-24.2 237.93-24.2 237.93-24.2 237.93-24.2L237.93-24.2Q237.93-24.2 237.93-23.5 237.93-22.8 237.93-21.6 237.93-20.4 237.93-18.93 237.93-17.45 237.93-15.88 237.93-14.3 237.93-12.85 237.93-11.4 237.93-10.25ZM235.93-12.45L237.93-12.45Q237.93-12.45 237.93-11.55 237.93-10.65 237.93-9.24 237.93-7.83 237.93-6.23 237.93-4.63 237.93-3.21 237.93-1.8 237.93-0.9 237.93 0 237.93 0L237.93 0Q237.93 0 237.93 0 237.93 0 237.93 0 237.93 0 237.93 0 237.93 0 237.93 0L237.93 0Q237.93 0 236.94 0 235.95 0 234.42 0 232.88 0 231.13 0 229.38 0 227.84 0 226.3 0 225.32 0 224.33 0 224.33 0L224.33 0Q224.33 0 224.33 0 224.33 0 224.33 0L224.33 0Q224.33 0 224.33 0 224.33 0 224.33 0 224.33 0 224.33 0L224.33 0Q224.33-0.5 224.33-1.01 224.33-1.53 224.33-2L224.33-2Q224.33-2 225.5-2 226.68-2 228.4-2 230.13-2 231.85-2 233.58-2 234.75-2 235.93-2 235.93-2L235.93-2Q235.93-2 235.93-2 235.93-2 235.93-2 235.93-2 235.93-2 235.93-2 235.93-2L235.93-2Q235.93-2 235.93-2 235.93-2 235.93-2L235.93-2Q235.93-2 235.93-2 235.93-2 235.93-2 235.93-2 235.93-2 235.93-2 235.93-2 235.93-2 235.93-2L235.93-2Q235.93-2 235.93-3.05 235.93-4.1 235.93-5.66 235.93-7.23 235.93-8.79 235.93-10.35 235.93-11.4 235.93-12.45 235.93-12.45L235.93-12.45ZM227.83-16.05L227.83-16.05Q227.83-16.05 227.83-16.05 227.83-16.05 227.83-16.05 227.83-16.05 227.83-16.05 227.83-16.05 227.83-16.05 227.83-16.05 227.83-16.05L227.83-16.05Q227.83-16.05 227.83-16.05 227.83-16.05 227.83-16.05L227.83-16.05Q227.98-16.05 228-16.03 228.03-16 228.03-15.85L228.03-15.85Q228.03-15.58 228.03-15.31 228.03-15.05 228.03-14.79 228.03-14.53 228.03-14.25L228.03-14.25Q228.03-14.1 228-14.08 227.98-14.05 227.83-14.05L227.83-14.05Q227.83-14.05 227.83-14.05 227.83-14.05 227.83-14.05L227.83-14.05Q227.83-14.05 227.83-14.05 227.83-14.05 227.83-14.05 227.83-14.05 227.83-14.05 227.83-14.05 227.83-14.05 227.83-14.05 227.83-14.05L227.83-14.05Q227.83-14.05 226.89-14.05 225.95-14.05 224.73-14.05 223.5-14.05 222.57-14.05 221.63-14.05 221.63-14.05L221.63-14.05Q221.63-14.05 221.63-14.05 221.63-14.05 221.63-14.05L221.63-14.05Q221.48-14.05 221.45-14.08 221.43-14.1 221.43-14.25L221.43-14.25Q221.43-14.53 221.43-14.79 221.43-15.05 221.43-15.31 221.43-15.58 221.43-15.85L221.43-15.85Q221.43-16 221.45-16.03 221.48-16.05 221.63-16.05L221.63-16.05Q221.63-16.05 221.63-16.05 221.63-16.05 221.63-16.05L221.63-16.05Q221.63-16.05 222.57-16.05 223.5-16.05 224.73-16.05 225.95-16.05 226.89-16.05 227.83-16.05 227.83-16.05ZM236.88-11.8L236.88-8.15 235.93-8.15Q235.93-8.15 235.93-8.33 235.93-8.5 235.93-8.68 235.93-8.85 235.93-8.85L235.93-8.85Q235.93-8.85 234.92-8.7 233.9-8.55 232.42-8.34 230.93-8.13 229.44-7.91 227.95-7.7 226.94-7.55 225.93-7.4 225.93-7.4L225.93-7.4Q225.93-7.4 225.92-7.5 225.9-7.6 225.87-7.81 225.83-8.03 225.78-8.35L225.78-8.35Q225.73-8.68 225.69-8.9 225.65-9.13 225.64-9.24 225.63-9.35 225.63-9.35L225.63-9.35Q225.63-9.35 226.67-9.5 227.7-9.65 229.24-9.88 230.78-10.1 232.32-10.33 233.85-10.55 234.89-10.7 235.93-10.85 235.93-10.85L235.93-10.85Q235.93-10.85 235.93-11.09 235.93-11.33 235.93-11.56 235.93-11.8 235.93-11.8L235.93-11.8 236.88-11.8Z" opacity="1" transform="matrix(1,0,0,1,0,0)" fill="#ffffff" class="wordmark-text-0" data-fill-palette-color="quaternary" id="text-0"></path></svg></g></svg></g><g transform="matrix(1,0,0,1,0,32.307867665077104)"><svg viewBox="0 0 213.1584412271571 16.152940609653168" height="16.152940609653168" width="213.1584412271571"><g transform="matrix(1,0,0,1,0,0)"><svg width="213.1584412271571" viewBox="1.56 -25.49 352.46 26.709999999999997" height="16.152940609653168" data-palette-color="#ffffff"><path d="M15.82-3.17L15.82-3.17Q16.5-3.17 16.87-2.86 17.24-2.54 17.24-2L17.24-2Q17.24-1.42 16.94-1.07 16.65-0.73 16.19-0.59 15.72-0.44 15.16-0.42 14.6-0.39 14.06-0.39L14.06-0.39Q11.62-0.39 9.35-1.1 7.08-1.81 5.35-3.17 3.61-4.54 2.59-6.59 1.56-8.64 1.56-11.38L1.56-11.38Q1.56-14.89 3.05-17.41 4.54-19.92 6.76-21.58 8.98-23.24 11.55-24.1 14.11-24.95 16.31-25.15L16.31-25.15Q17.19-25.15 17.53-24.71 17.87-24.27 17.87-23.78L17.87-23.78Q17.87-22.56 16.8-22.41L16.8-22.41Q14.79-22.12 12.62-21.36 10.45-20.61 8.64-19.24 6.84-17.87 5.66-15.94 4.49-14.01 4.49-11.38L4.49-11.38Q4.49-9.23 5.42-7.67 6.35-6.1 7.81-5.1 9.28-4.1 11.11-3.61 12.94-3.13 14.75-3.13L14.75-3.13Q14.99-3.13 15.28-3.13 15.58-3.13 15.82-3.17ZM28.41-13.13L28.41-13.13 27.14-13.13Q26.31-12.7 25.87-11.96 25.43-11.23 25.21-10.42 24.99-9.62 24.94-8.89 24.89-8.15 24.89-7.71L24.89-7.71Q24.89-6.74 25.16-5.86 25.43-4.98 25.94-4.32 26.46-3.66 27.14-3.27 27.82-2.88 28.7-2.88L28.7-2.88Q30.27-2.88 31.12-3.56 31.97-4.25 32.39-5.27 32.8-6.3 32.9-7.5 33-8.69 33-9.72L33-9.72Q32.9-10.35 32.56-11.01 32.22-11.67 31.71-12.16 31.19-12.65 30.58-12.96 29.97-13.28 29.34-13.28L29.34-13.28Q28.85-13.28 28.41-13.13ZM35.05-4.64L35.05-4.64Q34.51-2.39 32.66-1.22 30.8-0.05 28.56-0.05L28.56-0.05Q26.95-0.05 25.7-0.76 24.46-1.46 23.63-2.61 22.8-3.76 22.38-5.2 21.97-6.64 21.97-8.11L21.97-8.11Q21.97-9.28 22.26-10.67 22.55-12.06 23.19-13.23 23.82-14.4 24.85-15.21 25.87-16.02 27.34-16.02L27.34-16.02Q28.12-16.02 28.41-15.87L28.41-15.87Q28.65-15.92 28.85-15.92 29.05-15.92 29.29-15.92L29.29-15.92Q31.58-15.92 32.9-14.94 34.22-13.96 35.03-12.43 35.83-10.89 36.32-9.03 36.81-7.18 37.49-5.47L37.49-5.47Q37.69-4.88 38.08-4.17 38.47-3.47 38.86-2.78 39.25-2.1 39.52-1.56 39.79-1.03 39.79-0.73L39.79-0.73Q39.79-0.2 39.4 0.1 39.01 0.39 38.52 0.39L38.52 0.39Q38.03 0.39 37.52-0.02 37-0.44 36.54-1.12 36.08-1.81 35.69-2.73 35.3-3.66 35.05-4.64ZM44.32-1.71L44.32-1.71Q44.56-3.37 44.69-4.91 44.81-6.45 44.81-7.96L44.81-7.96Q44.81-10.94 44.22-14.11L44.22-14.11Q44.17-14.26 44.17-14.5L44.17-14.5Q44.17-15.19 44.59-15.63 45-16.06 45.59-16.06L45.59-16.06Q46.23-16.06 46.54-15.63 46.86-15.19 47.01-14.53 47.15-13.87 47.23-13.11 47.3-12.35 47.45-11.67L47.45-11.67Q48.08-12.3 49.06-12.89 50.03-13.48 51.13-13.92 52.23-14.36 53.35-14.62 54.48-14.89 55.45-14.89L55.45-14.89Q55.99-14.89 56.38-14.45 56.77-14.01 56.77-13.48L56.77-13.48Q56.77-12.99 56.48-12.52 56.19-12.06 55.55-12.06L55.55-12.06Q54.38-12.06 53.11-11.65 51.84-11.23 50.74-10.6 49.64-9.96 48.84-9.18 48.03-8.4 47.74-7.67L47.74-7.67Q47.64-6.69 47.62-5.35 47.59-4 47.42-2.81 47.25-1.61 46.86-0.78 46.47 0.05 45.69 0.05L45.69 0.05Q45.2 0.05 44.74-0.29 44.27-0.63 44.27-1.37L44.27-1.37Q44.27-1.56 44.32-1.71ZM74.78-3.17L74.78-3.17Q75.47-3.17 75.83-2.86 76.2-2.54 76.2-2L76.2-2Q76.2-1.42 75.9-1.07 75.61-0.73 75.15-0.59 74.68-0.44 74.12-0.42 73.56-0.39 73.02-0.39L73.02-0.39Q70.58-0.39 68.31-1.1 66.04-1.81 64.31-3.17 62.57-4.54 61.55-6.59 60.52-8.64 60.52-11.38L60.52-11.38Q60.52-14.89 62.01-17.41 63.5-19.92 65.72-21.58 67.95-23.24 70.51-24.1 73.07-24.95 75.27-25.15L75.27-25.15Q76.15-25.15 76.49-24.71 76.83-24.27 76.83-23.78L76.83-23.78Q76.83-22.56 75.76-22.41L75.76-22.41Q73.76-22.12 71.58-21.36 69.41-20.61 67.6-19.24 65.8-17.87 64.63-15.94 63.45-14.01 63.45-11.38L63.45-11.38Q63.45-9.23 64.38-7.67 65.31-6.1 66.77-5.1 68.24-4.1 70.07-3.61 71.9-3.13 73.71-3.13L73.71-3.13Q73.95-3.13 74.24-3.13 74.54-3.13 74.78-3.17ZM87.37-13.13L87.37-13.13 86.1-13.13Q85.27-12.7 84.83-11.96 84.39-11.23 84.17-10.42 83.95-9.62 83.91-8.89 83.86-8.15 83.86-7.71L83.86-7.71Q83.86-6.74 84.12-5.86 84.39-4.98 84.91-4.32 85.42-3.66 86.1-3.27 86.79-2.88 87.66-2.88L87.66-2.88Q89.23-2.88 90.08-3.56 90.94-4.25 91.35-5.27 91.77-6.3 91.86-7.5 91.96-8.69 91.96-9.72L91.96-9.72Q91.86-10.35 91.52-11.01 91.18-11.67 90.67-12.16 90.16-12.65 89.54-12.96 88.93-13.28 88.3-13.28L88.3-13.28Q87.81-13.28 87.37-13.13ZM94.01-4.64L94.01-4.64Q93.48-2.39 91.62-1.22 89.76-0.05 87.52-0.05L87.52-0.05Q85.91-0.05 84.66-0.76 83.42-1.46 82.59-2.61 81.76-3.76 81.34-5.2 80.93-6.64 80.93-8.11L80.93-8.11Q80.93-9.28 81.22-10.67 81.51-12.06 82.15-13.23 82.78-14.4 83.81-15.21 84.83-16.02 86.3-16.02L86.3-16.02Q87.08-16.02 87.37-15.87L87.37-15.87Q87.62-15.92 87.81-15.92 88.01-15.92 88.25-15.92L88.25-15.92Q90.55-15.92 91.86-14.94 93.18-13.96 93.99-12.43 94.79-10.89 95.28-9.03 95.77-7.18 96.45-5.47L96.45-5.47Q96.65-4.88 97.04-4.17 97.43-3.47 97.82-2.78 98.21-2.1 98.48-1.56 98.75-1.03 98.75-0.73L98.75-0.73Q98.75-0.2 98.36 0.1 97.97 0.39 97.48 0.39L97.48 0.39Q96.99 0.39 96.48-0.02 95.97-0.44 95.5-1.12 95.04-1.81 94.65-2.73 94.26-3.66 94.01-4.64ZM103.28-1.71L103.28-1.71Q103.53-3.37 103.65-4.91 103.77-6.45 103.77-7.96L103.77-7.96Q103.77-10.94 103.18-14.11L103.18-14.11Q103.14-14.26 103.14-14.5L103.14-14.5Q103.14-15.19 103.55-15.63 103.97-16.06 104.55-16.06L104.55-16.06Q105.19-16.06 105.5-15.63 105.82-15.19 105.97-14.53 106.11-13.87 106.19-13.11 106.26-12.35 106.41-11.67L106.41-11.67Q107.04-12.3 108.02-12.89 109-13.48 110.09-13.92 111.19-14.36 112.32-14.62 113.44-14.89 114.42-14.89L114.42-14.89Q114.95-14.89 115.34-14.45 115.73-14.01 115.73-13.48L115.73-13.48Q115.73-12.99 115.44-12.52 115.15-12.06 114.51-12.06L114.51-12.06Q113.34-12.06 112.07-11.65 110.8-11.23 109.7-10.6 108.6-9.96 107.8-9.18 106.99-8.4 106.7-7.67L106.7-7.67Q106.6-6.69 106.58-5.35 106.55-4 106.38-2.81 106.21-1.61 105.82-0.78 105.43 0.05 104.65 0.05L104.65 0.05Q104.16 0.05 103.7-0.29 103.23-0.63 103.23-1.37L103.23-1.37Q103.23-1.56 103.28-1.71ZM132.38-2.39L132.38-2.39Q133.21-2.39 133.6-2.03 133.99-1.66 133.99-1.07L133.99-1.07Q133.99-0.44 133.67-0.12 133.35 0.2 132.89 0.34 132.43 0.49 131.86 0.49 131.3 0.49 130.86 0.49L130.86 0.49Q128.81 0.49 126.79-0.02 124.76-0.54 123.15-1.56 121.54-2.59 120.51-4.1 119.49-5.62 119.49-7.57L119.49-7.57Q119.49-9.67 120.63-11.21 121.78-12.74 123.49-13.77 125.2-14.79 127.15-15.28 129.1-15.77 130.76-15.77L130.76-15.77Q131.6-15.77 132.45-15.58 133.3-15.38 133.99-14.89 134.67-14.4 135.11-13.57 135.55-12.74 135.55-11.47L135.55-11.47Q135.55-9.96 134.57-8.89 133.6-7.81 132.23-7.08 130.86-6.35 129.35-6.01 127.84-5.66 126.81-5.62L126.81-5.62Q126.27-5.62 126-6.03 125.74-6.45 125.74-6.98L125.74-6.98Q125.74-7.42 125.98-7.89 126.22-8.35 126.81-8.35L126.81-8.35Q127.74-8.35 128.79-8.54 129.84-8.74 130.74-9.16 131.64-9.57 132.23-10.21 132.82-10.84 132.82-11.72L132.82-11.72Q132.82-13.04 130.81-13.04L130.81-13.04Q129.5-13.04 128.03-12.67 126.57-12.3 125.35-11.57 124.12-10.84 123.32-9.74 122.51-8.64 122.51-7.18L122.51-7.18Q122.51-6.05 123.22-5.18 123.93-4.3 125.08-3.64 126.22-2.98 127.71-2.64 129.2-2.29 130.81-2.29L130.81-2.29Q131.2-2.29 131.6-2.32 131.99-2.34 132.38-2.39ZM151.12-11.67L151.12-11.67Q150.44-10.84 149.56-10.84L149.56-10.84Q148.68-10.84 147.8-12.06 146.92-13.28 146.09-14.79L146.09-14.79 144.19-18.31Q144.04-18.6 144.04-18.9L144.04-18.9Q144.04-19.53 144.5-20.02 144.97-20.51 145.5-20.51L145.5-20.51Q145.99-20.51 146.58-19.6 147.16-18.7 147.73-17.6 148.29-16.5 148.82-15.6 149.36-14.7 149.8-14.7L149.8-14.7Q150.09-14.7 150.34-15.09L150.34-15.09Q152.39-18.02 153.63-19.75 154.88-21.48 155.59-22.44 156.29-23.39 156.56-23.75 156.83-24.12 156.98-24.27L156.98-24.27Q157.12-24.85 157.54-25.17 157.95-25.49 158.39-25.49L158.39-25.49Q158.83-25.49 159.27-25.15 159.71-24.8 159.81-24.07L159.81-24.07Q160.25-21.44 160.42-18.33 160.59-15.23 160.59-12.01L160.59-12.01Q160.59-10.25 160.47-7.98 160.35-5.71 160.05-3.69 159.76-1.66 159.22-0.24 158.69 1.17 157.91 1.17L157.91 1.17Q157.37 1.17 156.95 0.78 156.54 0.39 156.54-0.44L156.54-0.44Q156.54-0.83 156.59-1.03L156.59-1.03Q157.22-3.81 157.49-6.81 157.76-9.81 157.76-12.6L157.76-12.6Q157.76-14.75 157.66-16.7 157.56-18.65 157.47-20.36L157.47-20.36 154-15.43Q153.07-14.21 152.31-13.18 151.56-12.16 151.12-11.67ZM143.4-22.71L143.4-22.41Q143.16-20.51 143.06-17.87 142.96-15.23 142.96-12.3L142.96-12.3Q142.96-9.38 143.14-6.52 143.31-3.66 143.31-1.46L143.31-1.46Q143.31-0.49 142.89-0.05 142.48 0.39 141.94 0.39L141.94 0.39Q141.5 0.39 141.13 0 140.77-0.39 140.67-1.22L140.67-1.22Q140.33-4 140.21-7.32 140.08-10.64 140.08-13.87L140.08-13.87Q140.08-16.31 140.16-18.55 140.23-20.8 140.47-22.8L140.47-22.8Q140.52-23.68 141.04-24.02 141.55-24.37 142.09-24.37L142.09-24.37Q142.62-24.37 143.01-23.9 143.4-23.44 143.4-22.71L143.4-22.71ZM171.72-13.13L171.72-13.13 170.45-13.13Q169.62-12.7 169.18-11.96 168.74-11.23 168.52-10.42 168.3-9.62 168.25-8.89 168.2-8.15 168.2-7.71L168.2-7.71Q168.2-6.74 168.47-5.86 168.74-4.98 169.25-4.32 169.76-3.66 170.45-3.27 171.13-2.88 172.01-2.88L172.01-2.88Q173.57-2.88 174.43-3.56 175.28-4.25 175.7-5.27 176.11-6.3 176.21-7.5 176.31-8.69 176.31-9.72L176.31-9.72Q176.21-10.35 175.87-11.01 175.53-11.67 175.01-12.16 174.5-12.65 173.89-12.96 173.28-13.28 172.64-13.28L172.64-13.28Q172.16-13.28 171.72-13.13ZM178.36-4.64L178.36-4.64Q177.82-2.39 175.96-1.22 174.11-0.05 171.86-0.05L171.86-0.05Q170.25-0.05 169.01-0.76 167.76-1.46 166.93-2.61 166.1-3.76 165.69-5.2 165.27-6.64 165.27-8.11L165.27-8.11Q165.27-9.28 165.56-10.67 165.86-12.06 166.49-13.23 167.13-14.4 168.15-15.21 169.18-16.02 170.64-16.02L170.64-16.02Q171.42-16.02 171.72-15.87L171.72-15.87Q171.96-15.92 172.16-15.92 172.35-15.92 172.6-15.92L172.6-15.92Q174.89-15.92 176.21-14.94 177.53-13.96 178.33-12.43 179.14-10.89 179.63-9.03 180.12-7.18 180.8-5.47L180.8-5.47Q180.99-4.88 181.38-4.17 181.78-3.47 182.17-2.78 182.56-2.1 182.82-1.56 183.09-1.03 183.09-0.73L183.09-0.73Q183.09-0.2 182.7 0.1 182.31 0.39 181.82 0.39L181.82 0.39Q181.34 0.39 180.82-0.02 180.31-0.44 179.85-1.12 179.38-1.81 178.99-2.73 178.6-3.66 178.36-4.64ZM199.74-0.05L199.74-0.05Q194.95-0.44 192.71-3.22 190.46-6.01 190.46-11.18L190.46-11.18 190.46-13.23Q188.55-13.23 187.29-13.6 186.02-13.96 186.02-15.19L186.02-15.19Q186.11-15.63 186.46-15.94 186.8-16.26 187.43-16.26L187.43-16.26Q188.02-16.26 188.85-16.11 189.68-15.97 190.65-15.97L190.65-15.97Q190.65-17.53 190.75-19.17 190.85-20.8 191.12-22.12 191.39-23.44 191.83-24.29 192.27-25.15 193-25.15L193-25.15Q193.54-25.15 193.97-24.68 194.41-24.22 194.41-23.44L194.41-23.44Q194.41-22.22 194.12-20.17 193.83-18.12 193.68-15.87L193.68-15.87Q194.07-15.82 194.49-15.8 194.9-15.77 195.34-15.77L195.34-15.77Q196.12-15.77 196.93-15.82 197.73-15.87 198.56-15.97L198.56-15.97Q199.25-15.97 199.69-15.58 200.13-15.19 200.13-14.7L200.13-14.7Q200.13-14.01 199.74-13.7 199.35-13.38 198.74-13.26 198.12-13.13 197.32-13.13 196.51-13.13 195.73-13.13L195.73-13.13 193.49-13.13Q193.44-12.6 193.44-12.11 193.44-11.62 193.44-11.13L193.44-11.13Q193.44-9.38 193.75-7.98 194.07-6.59 194.85-5.52 195.63-4.44 196.9-3.76 198.17-3.08 200.03-2.78L200.03-2.78Q200.57-2.69 200.81-2.34 201.05-2 201.05-1.56L201.05-1.56Q201.05-0.98 200.74-0.51 200.42-0.05 199.74-0.05ZM217.31-2.39L217.31-2.39Q218.14-2.39 218.53-2.03 218.92-1.66 218.92-1.07L218.92-1.07Q218.92-0.44 218.6-0.12 218.28 0.2 217.82 0.34 217.36 0.49 216.79 0.49 216.23 0.49 215.79 0.49L215.79 0.49Q213.74 0.49 211.72-0.02 209.69-0.54 208.08-1.56 206.47-2.59 205.44-4.1 204.42-5.62 204.42-7.57L204.42-7.57Q204.42-9.67 205.56-11.21 206.71-12.74 208.42-13.77 210.13-14.79 212.08-15.28 214.04-15.77 215.7-15.77L215.7-15.77Q216.53-15.77 217.38-15.58 218.23-15.38 218.92-14.89 219.6-14.4 220.04-13.57 220.48-12.74 220.48-11.47L220.48-11.47Q220.48-9.96 219.5-8.89 218.53-7.81 217.16-7.08 215.79-6.35 214.28-6.01 212.77-5.66 211.74-5.62L211.74-5.62Q211.2-5.62 210.93-6.03 210.67-6.45 210.67-6.98L210.67-6.98Q210.67-7.42 210.91-7.89 211.15-8.35 211.74-8.35L211.74-8.35Q212.67-8.35 213.72-8.54 214.77-8.74 215.67-9.16 216.57-9.57 217.16-10.21 217.75-10.84 217.75-11.72L217.75-11.72Q217.75-13.04 215.74-13.04L215.74-13.04Q214.43-13.04 212.96-12.67 211.5-12.3 210.28-11.57 209.05-10.84 208.25-9.74 207.44-8.64 207.44-7.18L207.44-7.18Q207.44-6.05 208.15-5.18 208.86-4.3 210.01-3.64 211.15-2.98 212.64-2.64 214.13-2.29 215.74-2.29L215.74-2.29Q216.13-2.29 216.53-2.32 216.92-2.34 217.31-2.39ZM238.2-3.17L238.2-3.17Q238.88-3.17 239.25-2.86 239.61-2.54 239.61-2L239.61-2Q239.61-1.42 239.32-1.07 239.03-0.73 238.56-0.59 238.1-0.44 237.54-0.42 236.98-0.39 236.44-0.39L236.44-0.39Q234-0.39 231.73-1.1 229.46-1.81 227.72-3.17 225.99-4.54 224.97-6.59 223.94-8.64 223.94-11.38L223.94-11.38Q223.94-14.89 225.43-17.41 226.92-19.92 229.14-21.58 231.36-23.24 233.93-24.1 236.49-24.95 238.69-25.15L238.69-25.15Q239.56-25.15 239.91-24.71 240.25-24.27 240.25-23.78L240.25-23.78Q240.25-22.56 239.17-22.41L239.17-22.41Q237.17-22.12 235-21.36 232.83-20.61 231.02-19.24 229.21-17.87 228.04-15.94 226.87-14.01 226.87-11.38L226.87-11.38Q226.87-9.23 227.8-7.67 228.73-6.1 230.19-5.1 231.65-4.1 233.49-3.61 235.32-3.13 237.12-3.13L237.12-3.13Q237.37-3.13 237.66-3.13 237.95-3.13 238.2-3.17ZM249.62-15.77L249.62-15.77Q250.2-16.02 250.49-16.02L250.49-16.02Q250.89-16.02 251.28-15.77L251.28-15.77Q251.62-15.82 252.03-15.89 252.45-15.97 252.74-15.97L252.74-15.97Q254.35-15.97 255.67-15.31 256.99-14.65 257.94-13.53 258.89-12.4 259.43-10.89 259.97-9.38 259.97-7.67L259.97-7.67Q259.97-6.15 259.41-4.76 258.84-3.37 257.84-2.29 256.84-1.22 255.52-0.59 254.21 0.05 252.74 0.05L252.74 0.05Q250.93 0.05 249.42-0.54 247.91-1.12 246.83-2.15 245.76-3.17 245.15-4.59 244.54-6.01 244.54-7.67L244.54-7.67Q244.54-8.98 244.83-10.38 245.12-11.77 245.76-12.94 246.39-14.11 247.35-14.89 248.3-15.67 249.62-15.77ZM250.2-13.23L250.2-13.23Q249.18-13.09 248.64-12.48 248.1-11.87 247.83-11.04 247.57-10.21 247.52-9.3 247.47-8.4 247.47-7.67L247.47-7.67Q247.47-6.79 247.76-5.88 248.05-4.98 248.71-4.27 249.37-3.56 250.35-3.13 251.32-2.69 252.74-2.69L252.74-2.69Q253.82-2.69 254.67-3.1 255.52-3.52 256.09-4.22 256.65-4.93 256.94-5.81 257.23-6.69 257.23-7.67L257.23-7.67Q257.23-10.21 256.01-11.84 254.79-13.48 252.74-13.62L252.74-13.62 251.81-13.62Q251.42-13.62 250.98-13.43 250.54-13.23 250.2-13.23ZM269.24-14.79L269.24-14.79Q270.02-15.28 271.07-15.48 272.12-15.67 273.24-15.67L273.24-15.67Q274.8-15.58 275.93-15.14 277.05-14.7 277.78-13.84 278.51-12.99 278.86-11.65 279.2-10.3 279.2-8.35L279.2-8.35Q279.2-6.35 279-4.61 278.81-2.88 278.47-1.59 278.12-0.29 277.66 0.46 277.2 1.22 276.61 1.22L276.61 1.22Q276.17 1.22 275.83 0.93 275.49 0.63 275.49 0L275.49 0Q275.49-0.63 275.66-1.64 275.83-2.64 276.05-3.78 276.27-4.93 276.44-6.13 276.61-7.32 276.61-8.35L276.61-8.35Q276.61-9.77 276.39-10.62 276.17-11.47 275.76-11.99 275.34-12.5 274.71-12.72 274.07-12.94 273.24-13.04L273.24-13.04Q272.22-13.04 271.19-12.7 270.16-12.35 269.43-12.35L269.43-12.35Q268.99-12.35 268.72-12.7 268.46-13.04 268.46-13.48L268.46-13.48Q268.46-13.82 268.63-14.18 268.8-14.55 269.24-14.79ZM267.09-15.28L267.09-15.28Q267.09-12.06 267.14-8.76 267.19-5.47 267.58-2.78L267.58-2.78 267.58-2.44Q267.58-1.61 267.16-1.2 266.75-0.78 266.26-0.78L266.26-0.78Q265.82-0.78 265.43-1.17 265.04-1.56 264.94-2.39L264.94-2.39Q264.7-4.74 264.55-7.23 264.4-9.72 264.4-12.35L264.4-12.35Q264.4-12.89 264.35-13.57 264.31-14.26 264.38-14.87 264.45-15.48 264.77-15.89 265.09-16.31 265.77-16.31L265.77-16.31Q266.26-16.31 266.67-15.99 267.09-15.67 267.09-15.28ZM288.37-14.79L288.37-14.79Q289.15-15.28 290.2-15.48 291.25-15.67 292.37-15.67L292.37-15.67Q293.94-15.58 295.06-15.14 296.18-14.7 296.92-13.84 297.65-12.99 297.99-11.65 298.33-10.3 298.33-8.35L298.33-8.35Q298.33-6.35 298.14-4.61 297.94-2.88 297.6-1.59 297.26-0.29 296.79 0.46 296.33 1.22 295.74 1.22L295.74 1.22Q295.3 1.22 294.96 0.93 294.62 0.63 294.62 0L294.62 0Q294.62-0.63 294.79-1.64 294.96-2.64 295.18-3.78 295.4-4.93 295.57-6.13 295.74-7.32 295.74-8.35L295.74-8.35Q295.74-9.77 295.52-10.62 295.3-11.47 294.89-11.99 294.47-12.5 293.84-12.72 293.2-12.94 292.37-13.04L292.37-13.04Q291.35-13.04 290.32-12.7 289.3-12.35 288.57-12.35L288.57-12.35Q288.13-12.35 287.86-12.7 287.59-13.04 287.59-13.48L287.59-13.48Q287.59-13.82 287.76-14.18 287.93-14.55 288.37-14.79ZM286.22-15.28L286.22-15.28Q286.22-12.06 286.27-8.76 286.32-5.47 286.71-2.78L286.71-2.78 286.71-2.44Q286.71-1.61 286.3-1.2 285.88-0.78 285.39-0.78L285.39-0.78Q284.95-0.78 284.56-1.17 284.17-1.56 284.07-2.39L284.07-2.39Q283.83-4.74 283.68-7.23 283.54-9.72 283.54-12.35L283.54-12.35Q283.54-12.89 283.49-13.57 283.44-14.26 283.51-14.87 283.59-15.48 283.9-15.89 284.22-16.31 284.9-16.31L284.9-16.31Q285.39-16.31 285.81-15.99 286.22-15.67 286.22-15.28ZM315.02-2.39L315.02-2.39Q315.85-2.39 316.24-2.03 316.63-1.66 316.63-1.07L316.63-1.07Q316.63-0.44 316.32-0.12 316 0.2 315.54 0.34 315.07 0.49 314.51 0.49 313.95 0.49 313.51 0.49L313.51 0.49Q311.46 0.49 309.43-0.02 307.41-0.54 305.79-1.56 304.18-2.59 303.16-4.1 302.13-5.62 302.13-7.57L302.13-7.57Q302.13-9.67 303.28-11.21 304.43-12.74 306.14-13.77 307.85-14.79 309.8-15.28 311.75-15.77 313.41-15.77L313.41-15.77Q314.24-15.77 315.1-15.58 315.95-15.38 316.63-14.89 317.32-14.4 317.76-13.57 318.2-12.74 318.2-11.47L318.2-11.47Q318.2-9.96 317.22-8.89 316.24-7.81 314.88-7.08 313.51-6.35 312-6.01 310.48-5.66 309.46-5.62L309.46-5.62Q308.92-5.62 308.65-6.03 308.38-6.45 308.38-6.98L308.38-6.98Q308.38-7.42 308.63-7.89 308.87-8.35 309.46-8.35L309.46-8.35Q310.38-8.35 311.43-8.54 312.48-8.74 313.39-9.16 314.29-9.57 314.88-10.21 315.46-10.84 315.46-11.72L315.46-11.72Q315.46-13.04 313.46-13.04L313.46-13.04Q312.14-13.04 310.68-12.67 309.21-12.3 307.99-11.57 306.77-10.84 305.97-9.74 305.16-8.64 305.16-7.18L305.16-7.18Q305.16-6.05 305.87-5.18 306.58-4.3 307.72-3.64 308.87-2.98 310.36-2.64 311.85-2.29 313.46-2.29L313.46-2.29Q313.85-2.29 314.24-2.32 314.63-2.34 315.02-2.39ZM334.64-2.69L334.64-2.69Q335.38-2.69 335.72-2.37 336.06-2.05 336.06-1.51L336.06-1.51Q336.06-0.83 335.72-0.51 335.38-0.2 334.89-0.1 334.4 0 333.81 0 333.23 0 332.79 0L332.79 0Q330.74 0 328.74-0.46 326.73-0.93 325.17-1.86 323.61-2.78 322.63-4.2 321.66-5.62 321.66-7.57L321.66-7.57Q321.66-9.86 322.75-11.45 323.85-13.04 325.54-14.04 327.22-15.04 329.3-15.48 331.37-15.92 333.37-15.92L333.37-15.92Q334.64-15.92 335.33-15.6 336.01-15.28 336.01-14.4L336.01-14.4Q336.01-13.87 335.74-13.53 335.47-13.18 334.99-13.18L334.99-13.18Q334.64-13.18 334.35-13.21 334.06-13.23 333.77-13.23L333.77-13.23Q332.06-13.23 330.47-12.89 328.88-12.55 327.64-11.82 326.39-11.08 325.64-9.94 324.88-8.79 324.88-7.18L324.88-7.18Q324.88-5.91 325.66-5.03 326.44-4.15 327.66-3.61 328.88-3.08 330.35-2.83 331.81-2.59 333.18-2.59L333.18-2.59Q333.57-2.59 333.91-2.61 334.25-2.64 334.64-2.69ZM352.7-0.05L352.7-0.05Q347.92-0.44 345.67-3.22 343.43-6.01 343.43-11.18L343.43-11.18 343.43-13.23Q341.52-13.23 340.25-13.6 338.98-13.96 338.98-15.19L338.98-15.19Q339.08-15.63 339.42-15.94 339.76-16.26 340.4-16.26L340.4-16.26Q340.98-16.26 341.81-16.11 342.64-15.97 343.62-15.97L343.62-15.97Q343.62-17.53 343.72-19.17 343.82-20.8 344.08-22.12 344.35-23.44 344.79-24.29 345.23-25.15 345.96-25.15L345.96-25.15Q346.5-25.15 346.94-24.68 347.38-24.22 347.38-23.44L347.38-23.44Q347.38-22.22 347.09-20.17 346.79-18.12 346.65-15.87L346.65-15.87Q347.04-15.82 347.45-15.8 347.87-15.77 348.31-15.77L348.31-15.77Q349.09-15.77 349.9-15.82 350.7-15.87 351.53-15.97L351.53-15.97Q352.21-15.97 352.65-15.58 353.09-15.19 353.09-14.7L353.09-14.7Q353.09-14.01 352.7-13.7 352.31-13.38 351.7-13.26 351.09-13.13 350.29-13.13 349.48-13.13 348.7-13.13L348.7-13.13 346.45-13.13Q346.4-12.6 346.4-12.11 346.4-11.62 346.4-11.13L346.4-11.13Q346.4-9.38 346.72-7.98 347.04-6.59 347.82-5.52 348.6-4.44 349.87-3.76 351.14-3.08 353-2.78L353-2.78Q353.53-2.69 353.78-2.34 354.02-2 354.02-1.56L354.02-1.56Q354.02-0.98 353.7-0.51 353.39-0.05 352.7-0.05Z" opacity="1" transform="matrix(1,0,0,1,0,0)" fill="#ffffff" class="slogan-text-1" data-fill-palette-color="quaternary" id="text-1"></path></svg></g></svg></g></svg></g></svg></g><g transform="matrix(1,0,0,1,64.71275845639465,0)"><svg viewBox="0 0 83.73292431436779 66.97283703567723" height="66.97283703567723" width="83.73292431436779"><g><svg xmlns:x="http://ns.adobe.com/Extensibility/1.0/" xmlns:i="http://ns.adobe.com/AdobeIllustrator/10.0/" xmlns:graph="http://ns.adobe.com/Graphs/1.0/" xmlns="http://www.w3.org/2000/svg" xmlns:xlink="http://www.w3.org/1999/xlink" xmlns:a="http://ns.adobe.com/AdobeSVGViewerExtensions/3.0/" version="1.0" x="0" y="0" viewBox="1.019 14.238 97.981 78.369" enable-background="new 0 0 100 100" xml:space="preserve" height="66.97283703567723" width="83.73292431436779" class="icon-icon-0" data-fill-palette-color="quaternary" id="icon-0"><g fill="#ffffff" data-fill-palette-color="quaternary"><path d="M97.943 37.106C96.912 35.435 94.797 34.869 93.668 34.869 92.537 34.869 92.291 36.074 92.291 36.074V40.227S92.293 40.234 92.293 40.245L91.094 40.842C90.184 36.33 89.074 31.035 88.096 26.967 85.799 17.425 84.231 14.238 82.573 14.238H79.979C79.469 14.238 79.026 14.41 78.754 14.672 78.754 14.672 55.039 14.239 50.033 14.238H49.988C44.981 14.238 21.268 14.672 21.268 14.672 20.997 14.41 20.55 14.238 20.042 14.238H17.447C15.789 14.238 14.219 17.425 11.924 26.967 10.946 31.035 9.836 36.33 8.926 40.842L7.725 40.245 7.728 40.227V36.074S7.482 34.869 6.352 34.869 3.108 35.434 2.076 37.106 1.019 39.931 1.019 41.086C1.019 42.242 1.633 44.698 3.771 45.461S6.917 46.1 6.917 45.437C6.917 45.413 6.917 45.383 6.92 45.35L7.985 45.574C7.966 45.665 7.948 45.762 7.931 45.849A18.67 18.67 0 0 0 17.3 48.343H82.713A18.7 18.7 0 0 0 92.084 45.849C92.064 45.762 92.047 45.665 92.029 45.574L93.093 45.35 93.097 45.438C93.097 46.101 94.103 46.224 96.242 45.462 98.385 44.699 99 42.243 99 41.087 99 39.932 98.977 38.778 97.943 37.106M17.186 47.303A2.917 2.917 0 1 1 17.184 41.469 2.917 2.917 0 0 1 17.186 47.303M50.01 40.521C44.192 40.483 35.605 40.345 27.031 39.908 17.9 39.444 15.489 39.189 14.911 36.278 13.581 29.578 17.57 18.636 17.57 18.636S28.415 17.614 36.744 17.403C40.62 17.305 45.684 17.298 49.99 17.32H50.034C54.339 17.299 59.403 17.305 63.28 17.403 71.606 17.614 82.452 18.636 82.452 18.636S86.44 29.578 85.11 36.278C84.534 39.189 82.122 39.444 72.991 39.908 64.414 40.346 55.828 40.484 50.01 40.521M82.834 47.303A2.916 2.916 0 0 1 79.92 44.386 2.916 2.916 0 0 1 82.834 41.468 2.92 2.92 0 0 1 85.756 44.386 2.92 2.92 0 0 1 82.834 47.303" fill="#ffffff" data-fill-palette-color="quaternary"></path><path d="M77.955 57.33C78.158 57.33 78.357 57.344 78.551 57.365 79.811 55.369 81.906 54.121 84.102 52.832 85.063 52.27 86.057 51.686 86.987 51.027 87.68 50.539 88.065 49.572 88.243 48.355A19.8 19.8 0 0 1 82.718 49.129H17.304C15.235 49.129 13.389 48.822 11.777 48.355 11.957 49.572 12.343 50.539 13.034 51.027 13.965 51.685 14.959 52.267 15.921 52.832 18.115 54.121 20.211 55.371 21.471 57.367 21.676 57.344 21.885 57.33 22.097 57.33 24.593 57.33 26.617 58.904 26.617 60.846 26.617 61.151 26.562 61.444 26.471 61.721H73.583A2.8 2.8 0 0 1 73.437 60.846C73.436 58.904 75.461 57.33 77.955 57.33" fill="#ffffff" data-fill-palette-color="quaternary"></path><path d="M92.289 46.666A19.3 19.3 0 0 1 89.059 48.099C88.875 49.677 88.401 50.992 87.44 51.67 86.485 52.348 85.477 52.94 84.499 53.512 82.511 54.68 80.604 55.813 79.407 57.52 81.19 57.989 82.475 59.301 82.475 60.846 82.475 61.18 82.411 61.5 82.301 61.805 87.711 62.004 89.666 62.647 90.365 63.047L90.215 63.904A0.4 0.4 0 0 1 90.082 63.785C90.074 63.775 88.908 62.808 81.885 62.58 81.11 63.642 79.641 64.361 77.955 64.361 76.25 64.361 74.764 63.627 73.996 62.541 70.713 62.547 67.086 62.539 67.086 62.539 66.893 63.719 66.199 64.598 65.371 64.598H34.65C33.821 64.598 33.128 63.719 32.933 62.539 32.933 62.539 29.33 62.547 26.057 62.541 25.287 63.627 23.804 64.361 22.097 64.361 20.411 64.361 18.943 63.642 18.166 62.578 11.115 62.807 9.947 63.773 9.939 63.785A0.4 0.4 0 0 1 9.805 63.904L9.655 63.047C10.356 62.645 12.316 62.004 17.751 61.803A2.8 2.8 0 0 1 17.577 60.846C17.577 59.307 18.851 58 20.621 57.528 19.423 55.817 17.516 54.682 15.522 53.512 14.547 52.94 13.538 52.348 12.58 51.67S11.146 49.675 10.962 48.099A19.3 19.3 0 0 1 7.733 46.666C4.469 51.049 4.915 63.276 7.579 71.791 7.575 71.84 7.566 71.887 7.566 71.941V89.953C7.566 91.418 9.679 92.607 12.284 92.607H13.078C15.684 92.607 17.796 91.418 17.796 89.953V84.168H82.223V89.953C82.223 91.418 84.334 92.607 86.942 92.607H87.737C90.341 92.607 92.452 91.418 92.452 89.953V71.941C92.452 71.886 92.446 71.839 92.442 71.791 95.107 63.275 95.553 51.049 92.289 46.666M21.655 77.801A2.674 2.674 0 1 1 21.655 72.453 2.673 2.673 0 0 1 24.329 75.125 2.67 2.67 0 0 1 21.655 77.801M71.207 74.771C70.506 77.679 68.283 79.283 65.793 79.283H34.229C31.737 79.283 29.517 77.679 28.815 74.771 28.815 74.771 27.061 70.259 33.326 70.259H66.692C72.959 70.26 71.207 74.771 71.207 74.771M78.363 77.801A2.67 2.67 0 0 1 75.691 75.125 2.675 2.675 0 1 1 78.363 77.801" fill="#ffffff" data-fill-palette-color="quaternary"></path></g></svg></g></svg></g><g></g></svg></g></svg></g></svg></g></svg></g><defs></defs></svg><rect width="342.85155851775386" height="342.85155851775386" fill="none" stroke="none" visibility="hidden"></rect></g></svg></g></svg>